G04 #@! TF.GenerationSoftware,KiCad,Pcbnew,5.1.5+dfsg1-2build2*
G04 #@! TF.CreationDate,2021-12-20T12:08:05-03:00*
G04 #@! TF.ProjectId,prueba,70727565-6261-42e6-9b69-6361645f7063,rev?*
G04 #@! TF.SameCoordinates,Original*
G04 #@! TF.FileFunction,Copper,L2,Bot*
G04 #@! TF.FilePolarity,Positive*
%FSLAX46Y46*%
G04 Gerber Fmt 4.6, Leading zero omitted, Abs format (unit mm)*
G04 Created by KiCad (PCBNEW 5.1.5+dfsg1-2build2) date 2021-12-20 12:08:05*
%MOMM*%
%LPD*%
G04 APERTURE LIST*
%ADD10O,1.600000X1.600000*%
%ADD11R,1.600000X1.600000*%
%ADD12R,1.400000X1.300000*%
%ADD13C,0.100000*%
%ADD14R,1.300000X1.400000*%
%ADD15C,0.800000*%
%ADD16C,0.250000*%
G04 APERTURE END LIST*
D10*
X150620000Y-75000000D03*
X143000000Y-82620000D03*
X150620000Y-77540000D03*
X143000000Y-80080000D03*
X150620000Y-80080000D03*
X143000000Y-77540000D03*
X150620000Y-82620000D03*
D11*
X143000000Y-75000000D03*
D12*
X136770000Y-55810000D03*
X136770000Y-53270000D03*
X136770000Y-50730000D03*
X111230000Y-55810000D03*
X111230000Y-53270000D03*
X111230000Y-50730000D03*
G04 #@! TA.AperFunction,ConnectorPad*
D13*
G36*
X159549009Y-50002408D02*
G01*
X159597545Y-50009607D01*
X159645142Y-50021530D01*
X159691342Y-50038060D01*
X159735698Y-50059039D01*
X159777785Y-50084265D01*
X159817197Y-50113495D01*
X159853553Y-50146447D01*
X159886505Y-50182803D01*
X159915735Y-50222215D01*
X159940961Y-50264302D01*
X159961940Y-50308658D01*
X159978470Y-50354858D01*
X159990393Y-50402455D01*
X159997592Y-50450991D01*
X160000000Y-50500000D01*
X160000000Y-51500000D01*
X159997592Y-51549009D01*
X159990393Y-51597545D01*
X159978470Y-51645142D01*
X159961940Y-51691342D01*
X159940961Y-51735698D01*
X159915735Y-51777785D01*
X159886505Y-51817197D01*
X159853553Y-51853553D01*
X159817197Y-51886505D01*
X159777785Y-51915735D01*
X159735698Y-51940961D01*
X159691342Y-51961940D01*
X159645142Y-51978470D01*
X159597545Y-51990393D01*
X159549009Y-51997592D01*
X159500000Y-52000000D01*
X156500000Y-52000000D01*
X156450991Y-51997592D01*
X156402455Y-51990393D01*
X156354858Y-51978470D01*
X156308658Y-51961940D01*
X156264302Y-51940961D01*
X156222215Y-51915735D01*
X156182803Y-51886505D01*
X156146447Y-51853553D01*
X156113495Y-51817197D01*
X156084265Y-51777785D01*
X156059039Y-51735698D01*
X156038060Y-51691342D01*
X156021530Y-51645142D01*
X156009607Y-51597545D01*
X156002408Y-51549009D01*
X156000000Y-51500000D01*
X156000000Y-50500000D01*
X156002408Y-50450991D01*
X156009607Y-50402455D01*
X156021530Y-50354858D01*
X156038060Y-50308658D01*
X156059039Y-50264302D01*
X156084265Y-50222215D01*
X156113495Y-50182803D01*
X156146447Y-50146447D01*
X156182803Y-50113495D01*
X156222215Y-50084265D01*
X156264302Y-50059039D01*
X156308658Y-50038060D01*
X156354858Y-50021530D01*
X156402455Y-50009607D01*
X156450991Y-50002408D01*
X156500000Y-50000000D01*
X159500000Y-50000000D01*
X159549009Y-50002408D01*
G37*
G04 #@! TD.AperFunction*
G04 #@! TA.AperFunction,ConnectorPad*
G36*
X159549009Y-52502408D02*
G01*
X159597545Y-52509607D01*
X159645142Y-52521530D01*
X159691342Y-52538060D01*
X159735698Y-52559039D01*
X159777785Y-52584265D01*
X159817197Y-52613495D01*
X159853553Y-52646447D01*
X159886505Y-52682803D01*
X159915735Y-52722215D01*
X159940961Y-52764302D01*
X159961940Y-52808658D01*
X159978470Y-52854858D01*
X159990393Y-52902455D01*
X159997592Y-52950991D01*
X160000000Y-53000000D01*
X160000000Y-54000000D01*
X159997592Y-54049009D01*
X159990393Y-54097545D01*
X159978470Y-54145142D01*
X159961940Y-54191342D01*
X159940961Y-54235698D01*
X159915735Y-54277785D01*
X159886505Y-54317197D01*
X159853553Y-54353553D01*
X159817197Y-54386505D01*
X159777785Y-54415735D01*
X159735698Y-54440961D01*
X159691342Y-54461940D01*
X159645142Y-54478470D01*
X159597545Y-54490393D01*
X159549009Y-54497592D01*
X159500000Y-54500000D01*
X156500000Y-54500000D01*
X156450991Y-54497592D01*
X156402455Y-54490393D01*
X156354858Y-54478470D01*
X156308658Y-54461940D01*
X156264302Y-54440961D01*
X156222215Y-54415735D01*
X156182803Y-54386505D01*
X156146447Y-54353553D01*
X156113495Y-54317197D01*
X156084265Y-54277785D01*
X156059039Y-54235698D01*
X156038060Y-54191342D01*
X156021530Y-54145142D01*
X156009607Y-54097545D01*
X156002408Y-54049009D01*
X156000000Y-54000000D01*
X156000000Y-53000000D01*
X156002408Y-52950991D01*
X156009607Y-52902455D01*
X156021530Y-52854858D01*
X156038060Y-52808658D01*
X156059039Y-52764302D01*
X156084265Y-52722215D01*
X156113495Y-52682803D01*
X156146447Y-52646447D01*
X156182803Y-52613495D01*
X156222215Y-52584265D01*
X156264302Y-52559039D01*
X156308658Y-52538060D01*
X156354858Y-52521530D01*
X156402455Y-52509607D01*
X156450991Y-52502408D01*
X156500000Y-52500000D01*
X159500000Y-52500000D01*
X159549009Y-52502408D01*
G37*
G04 #@! TD.AperFunction*
G04 #@! TA.AperFunction,ConnectorPad*
G36*
X159549009Y-55002408D02*
G01*
X159597545Y-55009607D01*
X159645142Y-55021530D01*
X159691342Y-55038060D01*
X159735698Y-55059039D01*
X159777785Y-55084265D01*
X159817197Y-55113495D01*
X159853553Y-55146447D01*
X159886505Y-55182803D01*
X159915735Y-55222215D01*
X159940961Y-55264302D01*
X159961940Y-55308658D01*
X159978470Y-55354858D01*
X159990393Y-55402455D01*
X159997592Y-55450991D01*
X160000000Y-55500000D01*
X160000000Y-56500000D01*
X159997592Y-56549009D01*
X159990393Y-56597545D01*
X159978470Y-56645142D01*
X159961940Y-56691342D01*
X159940961Y-56735698D01*
X159915735Y-56777785D01*
X159886505Y-56817197D01*
X159853553Y-56853553D01*
X159817197Y-56886505D01*
X159777785Y-56915735D01*
X159735698Y-56940961D01*
X159691342Y-56961940D01*
X159645142Y-56978470D01*
X159597545Y-56990393D01*
X159549009Y-56997592D01*
X159500000Y-57000000D01*
X156500000Y-57000000D01*
X156450991Y-56997592D01*
X156402455Y-56990393D01*
X156354858Y-56978470D01*
X156308658Y-56961940D01*
X156264302Y-56940961D01*
X156222215Y-56915735D01*
X156182803Y-56886505D01*
X156146447Y-56853553D01*
X156113495Y-56817197D01*
X156084265Y-56777785D01*
X156059039Y-56735698D01*
X156038060Y-56691342D01*
X156021530Y-56645142D01*
X156009607Y-56597545D01*
X156002408Y-56549009D01*
X156000000Y-56500000D01*
X156000000Y-55500000D01*
X156002408Y-55450991D01*
X156009607Y-55402455D01*
X156021530Y-55354858D01*
X156038060Y-55308658D01*
X156059039Y-55264302D01*
X156084265Y-55222215D01*
X156113495Y-55182803D01*
X156146447Y-55146447D01*
X156182803Y-55113495D01*
X156222215Y-55084265D01*
X156264302Y-55059039D01*
X156308658Y-55038060D01*
X156354858Y-55021530D01*
X156402455Y-55009607D01*
X156450991Y-55002408D01*
X156500000Y-55000000D01*
X159500000Y-55000000D01*
X159549009Y-55002408D01*
G37*
G04 #@! TD.AperFunction*
G04 #@! TA.AperFunction,ConnectorPad*
G36*
X153049009Y-50002408D02*
G01*
X153097545Y-50009607D01*
X153145142Y-50021530D01*
X153191342Y-50038060D01*
X153235698Y-50059039D01*
X153277785Y-50084265D01*
X153317197Y-50113495D01*
X153353553Y-50146447D01*
X153386505Y-50182803D01*
X153415735Y-50222215D01*
X153440961Y-50264302D01*
X153461940Y-50308658D01*
X153478470Y-50354858D01*
X153490393Y-50402455D01*
X153497592Y-50450991D01*
X153500000Y-50500000D01*
X153500000Y-51500000D01*
X153497592Y-51549009D01*
X153490393Y-51597545D01*
X153478470Y-51645142D01*
X153461940Y-51691342D01*
X153440961Y-51735698D01*
X153415735Y-51777785D01*
X153386505Y-51817197D01*
X153353553Y-51853553D01*
X153317197Y-51886505D01*
X153277785Y-51915735D01*
X153235698Y-51940961D01*
X153191342Y-51961940D01*
X153145142Y-51978470D01*
X153097545Y-51990393D01*
X153049009Y-51997592D01*
X153000000Y-52000000D01*
X150000000Y-52000000D01*
X149950991Y-51997592D01*
X149902455Y-51990393D01*
X149854858Y-51978470D01*
X149808658Y-51961940D01*
X149764302Y-51940961D01*
X149722215Y-51915735D01*
X149682803Y-51886505D01*
X149646447Y-51853553D01*
X149613495Y-51817197D01*
X149584265Y-51777785D01*
X149559039Y-51735698D01*
X149538060Y-51691342D01*
X149521530Y-51645142D01*
X149509607Y-51597545D01*
X149502408Y-51549009D01*
X149500000Y-51500000D01*
X149500000Y-50500000D01*
X149502408Y-50450991D01*
X149509607Y-50402455D01*
X149521530Y-50354858D01*
X149538060Y-50308658D01*
X149559039Y-50264302D01*
X149584265Y-50222215D01*
X149613495Y-50182803D01*
X149646447Y-50146447D01*
X149682803Y-50113495D01*
X149722215Y-50084265D01*
X149764302Y-50059039D01*
X149808658Y-50038060D01*
X149854858Y-50021530D01*
X149902455Y-50009607D01*
X149950991Y-50002408D01*
X150000000Y-50000000D01*
X153000000Y-50000000D01*
X153049009Y-50002408D01*
G37*
G04 #@! TD.AperFunction*
G04 #@! TA.AperFunction,ConnectorPad*
G36*
X153049009Y-52502408D02*
G01*
X153097545Y-52509607D01*
X153145142Y-52521530D01*
X153191342Y-52538060D01*
X153235698Y-52559039D01*
X153277785Y-52584265D01*
X153317197Y-52613495D01*
X153353553Y-52646447D01*
X153386505Y-52682803D01*
X153415735Y-52722215D01*
X153440961Y-52764302D01*
X153461940Y-52808658D01*
X153478470Y-52854858D01*
X153490393Y-52902455D01*
X153497592Y-52950991D01*
X153500000Y-53000000D01*
X153500000Y-54000000D01*
X153497592Y-54049009D01*
X153490393Y-54097545D01*
X153478470Y-54145142D01*
X153461940Y-54191342D01*
X153440961Y-54235698D01*
X153415735Y-54277785D01*
X153386505Y-54317197D01*
X153353553Y-54353553D01*
X153317197Y-54386505D01*
X153277785Y-54415735D01*
X153235698Y-54440961D01*
X153191342Y-54461940D01*
X153145142Y-54478470D01*
X153097545Y-54490393D01*
X153049009Y-54497592D01*
X153000000Y-54500000D01*
X150000000Y-54500000D01*
X149950991Y-54497592D01*
X149902455Y-54490393D01*
X149854858Y-54478470D01*
X149808658Y-54461940D01*
X149764302Y-54440961D01*
X149722215Y-54415735D01*
X149682803Y-54386505D01*
X149646447Y-54353553D01*
X149613495Y-54317197D01*
X149584265Y-54277785D01*
X149559039Y-54235698D01*
X149538060Y-54191342D01*
X149521530Y-54145142D01*
X149509607Y-54097545D01*
X149502408Y-54049009D01*
X149500000Y-54000000D01*
X149500000Y-53000000D01*
X149502408Y-52950991D01*
X149509607Y-52902455D01*
X149521530Y-52854858D01*
X149538060Y-52808658D01*
X149559039Y-52764302D01*
X149584265Y-52722215D01*
X149613495Y-52682803D01*
X149646447Y-52646447D01*
X149682803Y-52613495D01*
X149722215Y-52584265D01*
X149764302Y-52559039D01*
X149808658Y-52538060D01*
X149854858Y-52521530D01*
X149902455Y-52509607D01*
X149950991Y-52502408D01*
X150000000Y-52500000D01*
X153000000Y-52500000D01*
X153049009Y-52502408D01*
G37*
G04 #@! TD.AperFunction*
G04 #@! TA.AperFunction,ConnectorPad*
G36*
X153049009Y-55002408D02*
G01*
X153097545Y-55009607D01*
X153145142Y-55021530D01*
X153191342Y-55038060D01*
X153235698Y-55059039D01*
X153277785Y-55084265D01*
X153317197Y-55113495D01*
X153353553Y-55146447D01*
X153386505Y-55182803D01*
X153415735Y-55222215D01*
X153440961Y-55264302D01*
X153461940Y-55308658D01*
X153478470Y-55354858D01*
X153490393Y-55402455D01*
X153497592Y-55450991D01*
X153500000Y-55500000D01*
X153500000Y-56500000D01*
X153497592Y-56549009D01*
X153490393Y-56597545D01*
X153478470Y-56645142D01*
X153461940Y-56691342D01*
X153440961Y-56735698D01*
X153415735Y-56777785D01*
X153386505Y-56817197D01*
X153353553Y-56853553D01*
X153317197Y-56886505D01*
X153277785Y-56915735D01*
X153235698Y-56940961D01*
X153191342Y-56961940D01*
X153145142Y-56978470D01*
X153097545Y-56990393D01*
X153049009Y-56997592D01*
X153000000Y-57000000D01*
X150000000Y-57000000D01*
X149950991Y-56997592D01*
X149902455Y-56990393D01*
X149854858Y-56978470D01*
X149808658Y-56961940D01*
X149764302Y-56940961D01*
X149722215Y-56915735D01*
X149682803Y-56886505D01*
X149646447Y-56853553D01*
X149613495Y-56817197D01*
X149584265Y-56777785D01*
X149559039Y-56735698D01*
X149538060Y-56691342D01*
X149521530Y-56645142D01*
X149509607Y-56597545D01*
X149502408Y-56549009D01*
X149500000Y-56500000D01*
X149500000Y-55500000D01*
X149502408Y-55450991D01*
X149509607Y-55402455D01*
X149521530Y-55354858D01*
X149538060Y-55308658D01*
X149559039Y-55264302D01*
X149584265Y-55222215D01*
X149613495Y-55182803D01*
X149646447Y-55146447D01*
X149682803Y-55113495D01*
X149722215Y-55084265D01*
X149764302Y-55059039D01*
X149808658Y-55038060D01*
X149854858Y-55021530D01*
X149902455Y-55009607D01*
X149950991Y-55002408D01*
X150000000Y-55000000D01*
X153000000Y-55000000D01*
X153049009Y-55002408D01*
G37*
G04 #@! TD.AperFunction*
D14*
X111810000Y-63230000D03*
X109270000Y-63230000D03*
X106730000Y-63230000D03*
X111810000Y-88770000D03*
X109270000Y-88770000D03*
X106730000Y-88770000D03*
X132810000Y-63230000D03*
X130270000Y-63230000D03*
X127730000Y-63230000D03*
X132810000Y-88770000D03*
X130270000Y-88770000D03*
X127730000Y-88770000D03*
D15*
X133785300Y-72282000D03*
X130270000Y-61928900D03*
X126476400Y-63508300D03*
X110834700Y-77268500D03*
X115613800Y-54759800D03*
D16*
X136770000Y-55810000D02*
X136770000Y-54834700D01*
X158000000Y-51000000D02*
X156665200Y-49665200D01*
X156665200Y-49665200D02*
X142914800Y-49665200D01*
X142914800Y-49665200D02*
X137745300Y-54834700D01*
X137745300Y-54834700D02*
X136770000Y-54834700D01*
X136770000Y-55810000D02*
X136770000Y-60245300D01*
X136770000Y-60245300D02*
X133785300Y-63230000D01*
X133785300Y-63230000D02*
X133785300Y-72282000D01*
X132810000Y-63230000D02*
X131834700Y-63230000D01*
X111810000Y-63230000D02*
X112785300Y-63230000D01*
X112785300Y-63230000D02*
X114313600Y-64758300D01*
X114313600Y-64758300D02*
X130580700Y-64758300D01*
X130580700Y-64758300D02*
X131834700Y-63504300D01*
X131834700Y-63504300D02*
X131834700Y-63230000D01*
X132810000Y-63230000D02*
X133785300Y-63230000D01*
X158000000Y-53500000D02*
X158686500Y-53500000D01*
X158686500Y-53500000D02*
X160344100Y-51842400D01*
X160344100Y-51842400D02*
X160344100Y-50155000D01*
X160344100Y-50155000D02*
X159403900Y-49214800D01*
X159403900Y-49214800D02*
X140825200Y-49214800D01*
X140825200Y-49214800D02*
X137745300Y-52294700D01*
X137745300Y-52294700D02*
X136770000Y-52294700D01*
X136770000Y-53270000D02*
X136770000Y-52294700D01*
X130270000Y-63230000D02*
X129294700Y-63230000D01*
X129294700Y-63230000D02*
X129294700Y-63504300D01*
X129294700Y-63504300D02*
X128543600Y-64255400D01*
X128543600Y-64255400D02*
X116940500Y-64255400D01*
X116940500Y-64255400D02*
X114889700Y-62204600D01*
X114889700Y-62204600D02*
X110996400Y-62204600D01*
X110996400Y-62204600D02*
X110245300Y-62955700D01*
X110245300Y-62955700D02*
X110245300Y-63230000D01*
X130270000Y-63230000D02*
X130270000Y-61928900D01*
X109270000Y-63230000D02*
X110245300Y-63230000D01*
X136770000Y-53270000D02*
X136770000Y-54245300D01*
X130270000Y-61928900D02*
X130270000Y-60471000D01*
X130270000Y-60471000D02*
X136495700Y-54245300D01*
X136495700Y-54245300D02*
X136770000Y-54245300D01*
X158000000Y-56000000D02*
X158680200Y-56000000D01*
X158680200Y-56000000D02*
X160794500Y-53885700D01*
X160794500Y-53885700D02*
X160794500Y-49968500D01*
X160794500Y-49968500D02*
X159590400Y-48764400D01*
X159590400Y-48764400D02*
X137760300Y-48764400D01*
X137760300Y-48764400D02*
X136770000Y-49754700D01*
X136770000Y-50730000D02*
X136770000Y-49754700D01*
X106730000Y-63230000D02*
X107705300Y-63230000D01*
X126754700Y-63230000D02*
X125236900Y-61712200D01*
X125236900Y-61712200D02*
X108948800Y-61712200D01*
X108948800Y-61712200D02*
X107705300Y-62955700D01*
X107705300Y-62955700D02*
X107705300Y-63230000D01*
X136770000Y-50730000D02*
X136770000Y-51705300D01*
X136770000Y-51705300D02*
X136495700Y-51705300D01*
X136495700Y-51705300D02*
X127730000Y-60471000D01*
X127730000Y-60471000D02*
X127730000Y-63230000D01*
X127730000Y-63230000D02*
X126754700Y-63230000D01*
X126754700Y-63230000D02*
X126476400Y-63508300D01*
X132809900Y-87744500D02*
X135180400Y-85374000D01*
X135180400Y-85374000D02*
X135180400Y-64683900D01*
X135180400Y-64683900D02*
X148864300Y-51000000D01*
X148864300Y-51000000D02*
X151500000Y-51000000D01*
X112785300Y-88770000D02*
X113810700Y-87744600D01*
X113810700Y-87744600D02*
X132809800Y-87744600D01*
X132809800Y-87744600D02*
X132809900Y-87744500D01*
X132810000Y-87744700D02*
X132809900Y-87744500D01*
X132810000Y-88770000D02*
X132810000Y-87744700D01*
X111810000Y-88770000D02*
X112785300Y-88770000D01*
X110834700Y-77268500D02*
X105754600Y-72188400D01*
X105754600Y-72188400D02*
X105754600Y-62260700D01*
X105754600Y-62260700D02*
X111230000Y-56785300D01*
X110834700Y-88770000D02*
X110834700Y-77268500D01*
X111230000Y-55810000D02*
X111230000Y-56785300D01*
X111810000Y-88770000D02*
X110834700Y-88770000D01*
X111230000Y-50730000D02*
X112255300Y-50730000D01*
X112255300Y-50730000D02*
X112255300Y-51401300D01*
X112255300Y-51401300D02*
X115613800Y-54759800D01*
X143000000Y-77540000D02*
X143000000Y-78665300D01*
X127730000Y-88770000D02*
X128705300Y-88770000D01*
X128705300Y-88770000D02*
X128705300Y-89044300D01*
X128705300Y-89044300D02*
X129456400Y-89795400D01*
X129456400Y-89795400D02*
X133594700Y-89795400D01*
X133594700Y-89795400D02*
X133785400Y-89604700D01*
X133785400Y-89604700D02*
X133785400Y-87703000D01*
X133785400Y-87703000D02*
X142823100Y-78665300D01*
X142823100Y-78665300D02*
X143000000Y-78665300D01*
X143000000Y-80080000D02*
X143000000Y-81205300D01*
X106730000Y-88770000D02*
X107705300Y-88770000D01*
X107705300Y-88770000D02*
X107705300Y-89044300D01*
X107705300Y-89044300D02*
X108940200Y-90279200D01*
X108940200Y-90279200D02*
X133749200Y-90279200D01*
X133749200Y-90279200D02*
X142823100Y-81205300D01*
X142823100Y-81205300D02*
X143000000Y-81205300D01*
X149494700Y-75000000D02*
X148369400Y-73874700D01*
X148369400Y-73874700D02*
X142399400Y-73874700D01*
X142399400Y-73874700D02*
X138640200Y-70115500D01*
X138640200Y-70115500D02*
X138640200Y-61880400D01*
X138640200Y-61880400D02*
X144520600Y-56000000D01*
X144520600Y-56000000D02*
X151500000Y-56000000D01*
X150620000Y-77540000D02*
X150620000Y-75000000D01*
X150620000Y-80080000D02*
X150620000Y-77540000D01*
X150620000Y-82620000D02*
X150620000Y-80080000D01*
X150620000Y-75000000D02*
X149494700Y-75000000D01*
M02*
