G04 #@! TF.GenerationSoftware,KiCad,Pcbnew,5.1.5+dfsg1-2build2*
G04 #@! TF.CreationDate,2021-12-20T12:08:05-03:00*
G04 #@! TF.ProjectId,prueba,70727565-6261-42e6-9b69-6361645f7063,rev?*
G04 #@! TF.SameCoordinates,Original*
G04 #@! TF.FileFunction,Legend,Bot*
G04 #@! TF.FilePolarity,Positive*
%FSLAX46Y46*%
G04 Gerber Fmt 4.6, Leading zero omitted, Abs format (unit mm)*
G04 Created by KiCad (PCBNEW 5.1.5+dfsg1-2build2) date 2021-12-20 12:08:05*
%MOMM*%
%LPD*%
G04 APERTURE LIST*
%ADD10C,0.200000*%
G04 APERTURE END LIST*
D10*
X135500000Y-44400000D02*
X135500000Y-43800000D01*
X107580000Y-60200000D02*
X107580000Y-56730000D01*
X137230000Y-47270000D02*
X137230000Y-44400000D01*
X135500000Y-44400000D02*
X137230000Y-44400000D01*
X135500000Y-60200000D02*
X135500000Y-59600000D01*
X135500000Y-59600000D02*
X137230000Y-59600000D01*
X107580000Y-60200000D02*
X135500000Y-60200000D01*
X107580000Y-47270000D02*
X112825000Y-47270000D01*
X112825000Y-56730000D02*
X112825000Y-47270000D01*
X107580000Y-47270000D02*
X107580000Y-43800000D01*
X137230000Y-59600000D02*
X137230000Y-56730000D01*
X135500000Y-56730000D02*
X137230000Y-56730000D01*
X107580000Y-56730000D02*
X112825000Y-56730000D01*
X135500000Y-56730000D02*
X135500000Y-47270000D01*
X107580000Y-43800000D02*
X135500000Y-43800000D01*
X135500000Y-47270000D02*
X137230000Y-47270000D01*
X100400000Y-64500000D02*
X99800000Y-64500000D01*
X116200000Y-92420000D02*
X112730000Y-92420000D01*
X103270000Y-62770000D02*
X100400000Y-62770000D01*
X100400000Y-64500000D02*
X100400000Y-62770000D01*
X116200000Y-64500000D02*
X115600000Y-64500000D01*
X115600000Y-64500000D02*
X115600000Y-62770000D01*
X116200000Y-92420000D02*
X116200000Y-64500000D01*
X103270000Y-92420000D02*
X103270000Y-87175000D01*
X112730000Y-87175000D02*
X103270000Y-87175000D01*
X103270000Y-92420000D02*
X99800000Y-92420000D01*
X115600000Y-62770000D02*
X112730000Y-62770000D01*
X112730000Y-64500000D02*
X112730000Y-62770000D01*
X112730000Y-92420000D02*
X112730000Y-87175000D01*
X112730000Y-64500000D02*
X103270000Y-64500000D01*
X99800000Y-92420000D02*
X99800000Y-64500000D01*
X103270000Y-64500000D02*
X103270000Y-62770000D01*
X121400000Y-64500000D02*
X120800000Y-64500000D01*
X137200000Y-92420000D02*
X133730000Y-92420000D01*
X124270000Y-62770000D02*
X121400000Y-62770000D01*
X121400000Y-64500000D02*
X121400000Y-62770000D01*
X137200000Y-64500000D02*
X136600000Y-64500000D01*
X136600000Y-64500000D02*
X136600000Y-62770000D01*
X137200000Y-92420000D02*
X137200000Y-64500000D01*
X124270000Y-92420000D02*
X124270000Y-87175000D01*
X133730000Y-87175000D02*
X124270000Y-87175000D01*
X124270000Y-92420000D02*
X120800000Y-92420000D01*
X136600000Y-62770000D02*
X133730000Y-62770000D01*
X133730000Y-64500000D02*
X133730000Y-62770000D01*
X133730000Y-92420000D02*
X133730000Y-87175000D01*
X133730000Y-64500000D02*
X124270000Y-64500000D01*
X120800000Y-92420000D02*
X120800000Y-64500000D01*
X124270000Y-64500000D02*
X124270000Y-62770000D01*
M02*
