G04 #@! TF.GenerationSoftware,KiCad,Pcbnew,5.1.5+dfsg1-2build2*
G04 #@! TF.CreationDate,2021-12-20T12:08:05-03:00*
G04 #@! TF.ProjectId,prueba,70727565-6261-42e6-9b69-6361645f7063,rev?*
G04 #@! TF.SameCoordinates,Original*
G04 #@! TF.FileFunction,Soldermask,Top*
G04 #@! TF.FilePolarity,Negative*
%FSLAX46Y46*%
G04 Gerber Fmt 4.6, Leading zero omitted, Abs format (unit mm)*
G04 Created by KiCad (PCBNEW 5.1.5+dfsg1-2build2) date 2021-12-20 12:08:05*
%MOMM*%
%LPD*%
G04 APERTURE LIST*
%ADD10C,0.100000*%
G04 APERTURE END LIST*
D10*
G36*
X143248228Y-81801703D02*
G01*
X143403100Y-81865853D01*
X143542481Y-81958985D01*
X143661015Y-82077519D01*
X143754147Y-82216900D01*
X143818297Y-82371772D01*
X143851000Y-82536184D01*
X143851000Y-82703816D01*
X143818297Y-82868228D01*
X143754147Y-83023100D01*
X143661015Y-83162481D01*
X143542481Y-83281015D01*
X143403100Y-83374147D01*
X143248228Y-83438297D01*
X143083816Y-83471000D01*
X142916184Y-83471000D01*
X142751772Y-83438297D01*
X142596900Y-83374147D01*
X142457519Y-83281015D01*
X142338985Y-83162481D01*
X142245853Y-83023100D01*
X142181703Y-82868228D01*
X142149000Y-82703816D01*
X142149000Y-82536184D01*
X142181703Y-82371772D01*
X142245853Y-82216900D01*
X142338985Y-82077519D01*
X142457519Y-81958985D01*
X142596900Y-81865853D01*
X142751772Y-81801703D01*
X142916184Y-81769000D01*
X143083816Y-81769000D01*
X143248228Y-81801703D01*
G37*
G36*
X150868228Y-81801703D02*
G01*
X151023100Y-81865853D01*
X151162481Y-81958985D01*
X151281015Y-82077519D01*
X151374147Y-82216900D01*
X151438297Y-82371772D01*
X151471000Y-82536184D01*
X151471000Y-82703816D01*
X151438297Y-82868228D01*
X151374147Y-83023100D01*
X151281015Y-83162481D01*
X151162481Y-83281015D01*
X151023100Y-83374147D01*
X150868228Y-83438297D01*
X150703816Y-83471000D01*
X150536184Y-83471000D01*
X150371772Y-83438297D01*
X150216900Y-83374147D01*
X150077519Y-83281015D01*
X149958985Y-83162481D01*
X149865853Y-83023100D01*
X149801703Y-82868228D01*
X149769000Y-82703816D01*
X149769000Y-82536184D01*
X149801703Y-82371772D01*
X149865853Y-82216900D01*
X149958985Y-82077519D01*
X150077519Y-81958985D01*
X150216900Y-81865853D01*
X150371772Y-81801703D01*
X150536184Y-81769000D01*
X150703816Y-81769000D01*
X150868228Y-81801703D01*
G37*
G36*
X112981000Y-82971000D02*
G01*
X111479000Y-82971000D01*
X111479000Y-81569000D01*
X112981000Y-81569000D01*
X112981000Y-82971000D01*
G37*
G36*
X138521000Y-82971000D02*
G01*
X137019000Y-82971000D01*
X137019000Y-81569000D01*
X138521000Y-81569000D01*
X138521000Y-82971000D01*
G37*
G36*
X143248228Y-79261703D02*
G01*
X143403100Y-79325853D01*
X143542481Y-79418985D01*
X143661015Y-79537519D01*
X143754147Y-79676900D01*
X143818297Y-79831772D01*
X143851000Y-79996184D01*
X143851000Y-80163816D01*
X143818297Y-80328228D01*
X143754147Y-80483100D01*
X143661015Y-80622481D01*
X143542481Y-80741015D01*
X143403100Y-80834147D01*
X143248228Y-80898297D01*
X143083816Y-80931000D01*
X142916184Y-80931000D01*
X142751772Y-80898297D01*
X142596900Y-80834147D01*
X142457519Y-80741015D01*
X142338985Y-80622481D01*
X142245853Y-80483100D01*
X142181703Y-80328228D01*
X142149000Y-80163816D01*
X142149000Y-79996184D01*
X142181703Y-79831772D01*
X142245853Y-79676900D01*
X142338985Y-79537519D01*
X142457519Y-79418985D01*
X142596900Y-79325853D01*
X142751772Y-79261703D01*
X142916184Y-79229000D01*
X143083816Y-79229000D01*
X143248228Y-79261703D01*
G37*
G36*
X150868228Y-79261703D02*
G01*
X151023100Y-79325853D01*
X151162481Y-79418985D01*
X151281015Y-79537519D01*
X151374147Y-79676900D01*
X151438297Y-79831772D01*
X151471000Y-79996184D01*
X151471000Y-80163816D01*
X151438297Y-80328228D01*
X151374147Y-80483100D01*
X151281015Y-80622481D01*
X151162481Y-80741015D01*
X151023100Y-80834147D01*
X150868228Y-80898297D01*
X150703816Y-80931000D01*
X150536184Y-80931000D01*
X150371772Y-80898297D01*
X150216900Y-80834147D01*
X150077519Y-80741015D01*
X149958985Y-80622481D01*
X149865853Y-80483100D01*
X149801703Y-80328228D01*
X149769000Y-80163816D01*
X149769000Y-79996184D01*
X149801703Y-79831772D01*
X149865853Y-79676900D01*
X149958985Y-79537519D01*
X150077519Y-79418985D01*
X150216900Y-79325853D01*
X150371772Y-79261703D01*
X150536184Y-79229000D01*
X150703816Y-79229000D01*
X150868228Y-79261703D01*
G37*
G36*
X138521000Y-80431000D02*
G01*
X137019000Y-80431000D01*
X137019000Y-79029000D01*
X138521000Y-79029000D01*
X138521000Y-80431000D01*
G37*
G36*
X112981000Y-80431000D02*
G01*
X111479000Y-80431000D01*
X111479000Y-79029000D01*
X112981000Y-79029000D01*
X112981000Y-80431000D01*
G37*
G36*
X150868228Y-76721703D02*
G01*
X151023100Y-76785853D01*
X151162481Y-76878985D01*
X151281015Y-76997519D01*
X151374147Y-77136900D01*
X151438297Y-77291772D01*
X151471000Y-77456184D01*
X151471000Y-77623816D01*
X151438297Y-77788228D01*
X151374147Y-77943100D01*
X151281015Y-78082481D01*
X151162481Y-78201015D01*
X151023100Y-78294147D01*
X150868228Y-78358297D01*
X150703816Y-78391000D01*
X150536184Y-78391000D01*
X150371772Y-78358297D01*
X150216900Y-78294147D01*
X150077519Y-78201015D01*
X149958985Y-78082481D01*
X149865853Y-77943100D01*
X149801703Y-77788228D01*
X149769000Y-77623816D01*
X149769000Y-77456184D01*
X149801703Y-77291772D01*
X149865853Y-77136900D01*
X149958985Y-76997519D01*
X150077519Y-76878985D01*
X150216900Y-76785853D01*
X150371772Y-76721703D01*
X150536184Y-76689000D01*
X150703816Y-76689000D01*
X150868228Y-76721703D01*
G37*
G36*
X143248228Y-76721703D02*
G01*
X143403100Y-76785853D01*
X143542481Y-76878985D01*
X143661015Y-76997519D01*
X143754147Y-77136900D01*
X143818297Y-77291772D01*
X143851000Y-77456184D01*
X143851000Y-77623816D01*
X143818297Y-77788228D01*
X143754147Y-77943100D01*
X143661015Y-78082481D01*
X143542481Y-78201015D01*
X143403100Y-78294147D01*
X143248228Y-78358297D01*
X143083816Y-78391000D01*
X142916184Y-78391000D01*
X142751772Y-78358297D01*
X142596900Y-78294147D01*
X142457519Y-78201015D01*
X142338985Y-78082481D01*
X142245853Y-77943100D01*
X142181703Y-77788228D01*
X142149000Y-77623816D01*
X142149000Y-77456184D01*
X142181703Y-77291772D01*
X142245853Y-77136900D01*
X142338985Y-76997519D01*
X142457519Y-76878985D01*
X142596900Y-76785853D01*
X142751772Y-76721703D01*
X142916184Y-76689000D01*
X143083816Y-76689000D01*
X143248228Y-76721703D01*
G37*
G36*
X112981000Y-77891000D02*
G01*
X111479000Y-77891000D01*
X111479000Y-76489000D01*
X112981000Y-76489000D01*
X112981000Y-77891000D01*
G37*
G36*
X138521000Y-77891000D02*
G01*
X137019000Y-77891000D01*
X137019000Y-76489000D01*
X138521000Y-76489000D01*
X138521000Y-77891000D01*
G37*
G36*
X150868228Y-74181703D02*
G01*
X151023100Y-74245853D01*
X151162481Y-74338985D01*
X151281015Y-74457519D01*
X151374147Y-74596900D01*
X151438297Y-74751772D01*
X151471000Y-74916184D01*
X151471000Y-75083816D01*
X151438297Y-75248228D01*
X151374147Y-75403100D01*
X151281015Y-75542481D01*
X151162481Y-75661015D01*
X151023100Y-75754147D01*
X150868228Y-75818297D01*
X150703816Y-75851000D01*
X150536184Y-75851000D01*
X150371772Y-75818297D01*
X150216900Y-75754147D01*
X150077519Y-75661015D01*
X149958985Y-75542481D01*
X149865853Y-75403100D01*
X149801703Y-75248228D01*
X149769000Y-75083816D01*
X149769000Y-74916184D01*
X149801703Y-74751772D01*
X149865853Y-74596900D01*
X149958985Y-74457519D01*
X150077519Y-74338985D01*
X150216900Y-74245853D01*
X150371772Y-74181703D01*
X150536184Y-74149000D01*
X150703816Y-74149000D01*
X150868228Y-74181703D01*
G37*
G36*
X143851000Y-75851000D02*
G01*
X142149000Y-75851000D01*
X142149000Y-74149000D01*
X143851000Y-74149000D01*
X143851000Y-75851000D01*
G37*
M02*
