%TF.GenerationSoftware,KiCad,Pcbnew,7.0.8*%
%TF.CreationDate,2024-12-20T13:37:24-03:00*%
%TF.ProjectId,Tesseract,54657373-6572-4616-9374-2e6b69636164,rev?*%
%TF.SameCoordinates,Original*%
%TF.FileFunction,Copper,L2,Bot*%
%TF.FilePolarity,Positive*%
%FSLAX46Y46*%
G04 Gerber Fmt 4.6, Leading zero omitted, Abs format (unit mm)*
G04 Created by KiCad (PCBNEW 7.0.8) date 2024-12-20 13:37:24*
%MOMM*%
%LPD*%
G01*
G04 APERTURE LIST*
%TA.AperFunction,ComponentPad*%
%ADD10R,2.600000X2.600000*%
%TD*%
%TA.AperFunction,ComponentPad*%
%ADD11C,2.600000*%
%TD*%
%TA.AperFunction,ComponentPad*%
%ADD12C,1.600000*%
%TD*%
%TA.AperFunction,ComponentPad*%
%ADD13R,1.700000X1.700000*%
%TD*%
%TA.AperFunction,ComponentPad*%
%ADD14O,1.700000X1.700000*%
%TD*%
%TA.AperFunction,ComponentPad*%
%ADD15R,1.800000X1.800000*%
%TD*%
%TA.AperFunction,ComponentPad*%
%ADD16C,1.800000*%
%TD*%
%TA.AperFunction,ComponentPad*%
%ADD17C,1.710000*%
%TD*%
%TA.AperFunction,ComponentPad*%
%ADD18C,3.000000*%
%TD*%
%TA.AperFunction,ComponentPad*%
%ADD19C,2.500000*%
%TD*%
%TA.AperFunction,ViaPad*%
%ADD20C,2.000000*%
%TD*%
%TA.AperFunction,Conductor*%
%ADD21C,0.800000*%
%TD*%
%TA.AperFunction,Conductor*%
%ADD22C,0.600000*%
%TD*%
G04 APERTURE END LIST*
D10*
%TO.P,J22,1,Pin_1*%
%TO.N,Net-(J22-Pin_1)*%
X33250000Y-119000000D03*
D11*
%TO.P,J22,2,Pin_2*%
%TO.N,Net-(J22-Pin_2)*%
X38250000Y-119000000D03*
%TO.P,J22,3,Pin_3*%
%TO.N,Net-(J22-Pin_3)*%
X43250000Y-119000000D03*
%TO.P,J22,4,Pin_4*%
%TO.N,GND*%
X48250000Y-119000000D03*
%TO.P,J22,5,Pin_5*%
%TO.N,Net-(D5-K)*%
X53250000Y-119000000D03*
%TO.P,J22,6,Pin_6*%
%TO.N,BTN*%
X58250000Y-119000000D03*
%TD*%
D12*
%TO.P,RV3,1*%
%TO.N,Net-(J14-Pin_1)*%
X62450000Y-99150000D03*
%TO.P,RV3,2*%
%TO.N,Net-(J14-Pin_2)*%
X57450000Y-97150000D03*
%TD*%
D13*
%TO.P,J6,1,Pin_1*%
%TO.N,TXP*%
X92250000Y-109500000D03*
D14*
%TO.P,J6,2,Pin_2*%
%TO.N,SCL{slash}TX*%
X89710000Y-109500000D03*
%TO.P,J6,3,Pin_3*%
%TO.N,SCL*%
X87170000Y-109500000D03*
%TD*%
D13*
%TO.P,J1,1,Pin_1*%
%TO.N,12V*%
X52500000Y-81525000D03*
D14*
%TO.P,J1,2,Pin_2*%
%TO.N,Net-(D2-K)*%
X52500000Y-78985000D03*
%TO.P,J1,3,Pin_3*%
%TO.N,+5V*%
X52500000Y-76445000D03*
%TD*%
D13*
%TO.P,J13,1,Pin_1*%
%TO.N,unconnected-(J13-Pin_1-Pad1)*%
X106550000Y-28850000D03*
D14*
%TO.P,J13,2,Pin_2*%
%TO.N,unconnected-(J13-Pin_2-Pad2)*%
X104010000Y-28850000D03*
%TO.P,J13,3,Pin_3*%
%TO.N,unconnected-(J13-Pin_3-Pad3)*%
X101470000Y-28850000D03*
%TO.P,J13,4,Pin_4*%
%TO.N,unconnected-(J13-Pin_4-Pad4)*%
X98930000Y-28850000D03*
%TO.P,J13,5,Pin_5*%
%TO.N,unconnected-(J13-Pin_5-Pad5)*%
X96390000Y-28850000D03*
%TO.P,J13,6,Pin_6*%
%TO.N,unconnected-(J13-Pin_6-Pad6)*%
X93850000Y-28850000D03*
%TD*%
D15*
%TO.P,D4,1,K*%
%TO.N,Net-(D2-A)*%
X33790000Y-107000000D03*
D16*
%TO.P,D4,2,A*%
%TO.N,Net-(D4-A)*%
X31250000Y-107000000D03*
%TD*%
D10*
%TO.P,J14,1,Pin_1*%
%TO.N,Net-(J14-Pin_1)*%
X66250000Y-119000000D03*
D11*
%TO.P,J14,2,Pin_2*%
%TO.N,Net-(J14-Pin_2)*%
X71250000Y-119000000D03*
%TO.P,J14,3,Pin_3*%
%TO.N,Net-(J14-Pin_3)*%
X76250000Y-119000000D03*
%TD*%
D10*
%TO.P,J15,1,Pin_1*%
%TO.N,BEEP*%
X71400000Y-31250000D03*
D11*
%TO.P,J15,2,Pin_2*%
%TO.N,LED*%
X66320000Y-31250000D03*
%TO.P,J15,3,Pin_3*%
%TO.N,D1*%
X61240000Y-31250000D03*
%TO.P,J15,4,Pin_4*%
%TO.N,D0*%
X56160000Y-31250000D03*
%TO.P,J15,5,Pin_5*%
%TO.N,GND*%
X51080000Y-31250000D03*
%TO.P,J15,6,Pin_6*%
%TO.N,Net-(J15-Pin_6)*%
X46000000Y-31250000D03*
%TD*%
D17*
%TO.P,F1,1*%
%TO.N,+12V*%
X26850000Y-36950000D03*
%TO.P,F1,2*%
%TO.N,12VOUT*%
X25650000Y-42050000D03*
%TD*%
D13*
%TO.P,J3,1,Pin_1*%
%TO.N,GND*%
X29000000Y-70750000D03*
%TD*%
%TO.P,J19,1,Pin_1*%
%TO.N,+5V*%
X68000000Y-53750000D03*
%TD*%
%TO.P,J8,1,Pin_1*%
%TO.N,GND*%
X48250000Y-107000000D03*
D14*
%TO.P,J8,2,Pin_2*%
%TO.N,Net-(J22-Pin_2)*%
X45710000Y-107000000D03*
%TO.P,J8,3,Pin_3*%
%TO.N,Net-(J8-Pin_3)*%
X43170000Y-107000000D03*
%TO.P,J8,4,Pin_4*%
%TO.N,12VOUT*%
X40630000Y-107000000D03*
%TO.P,J8,5,Pin_5*%
X38090000Y-107000000D03*
%TD*%
D12*
%TO.P,RV2,1*%
%TO.N,Net-(J22-Pin_2)*%
X43250000Y-97250000D03*
%TO.P,RV2,2*%
%TO.N,Net-(J22-Pin_3)*%
X48250000Y-99250000D03*
%TD*%
D18*
%TO.P,K1,1*%
%TO.N,Net-(J8-Pin_3)*%
X41250000Y-75550000D03*
D19*
%TO.P,K1,2*%
%TO.N,Net-(D2-A)*%
X35200000Y-77500000D03*
D18*
%TO.P,K1,3*%
%TO.N,Net-(J22-Pin_1)*%
X35200000Y-89700000D03*
%TO.P,K1,4*%
%TO.N,Net-(J22-Pin_3)*%
X47250000Y-89750000D03*
D19*
%TO.P,K1,5*%
%TO.N,Net-(D2-K)*%
X47200000Y-77500000D03*
%TD*%
D17*
%TO.P,F2,1*%
%TO.N,12V*%
X45450000Y-47150000D03*
%TO.P,F2,2*%
%TO.N,Net-(J15-Pin_6)*%
X50550000Y-48350000D03*
%TD*%
D13*
%TO.P,J2,1,Pin_1*%
%TO.N,12V*%
X29000000Y-53750000D03*
%TD*%
D12*
%TO.P,RV4,1*%
%TO.N,Net-(J14-Pin_2)*%
X70700000Y-99150000D03*
%TO.P,RV4,2*%
%TO.N,Net-(J14-Pin_3)*%
X65700000Y-97150000D03*
%TD*%
D13*
%TO.P,J20,1,Pin_1*%
%TO.N,GND*%
X68000000Y-70750000D03*
%TD*%
%TO.P,J10,1,Pin_1*%
%TO.N,GND*%
X104180000Y-63100000D03*
D14*
%TO.P,J10,2,Pin_2*%
%TO.N,+3.3V*%
X101640000Y-63100000D03*
%TO.P,J10,3,Pin_3*%
%TO.N,SDA*%
X99100000Y-63100000D03*
%TO.P,J10,4,Pin_4*%
%TO.N,SCL*%
X96560000Y-63100000D03*
%TD*%
D13*
%TO.P,J12,1,Pin_1*%
%TO.N,12V*%
X52500000Y-87210000D03*
D14*
%TO.P,J12,2,Pin_2*%
%TO.N,Net-(D7-K)*%
X52500000Y-89750000D03*
%TO.P,J12,3,Pin_3*%
%TO.N,+5V*%
X52500000Y-92290000D03*
%TD*%
D13*
%TO.P,J7,1,Pin_1*%
%TO.N,RXP*%
X92080000Y-114000000D03*
D14*
%TO.P,J7,2,Pin_2*%
%TO.N,SDA{slash}RX*%
X89540000Y-114000000D03*
%TO.P,J7,3,Pin_3*%
%TO.N,SDA*%
X87000000Y-114000000D03*
%TD*%
D13*
%TO.P,J21,1,Pin_1*%
%TO.N,GND*%
X98960000Y-119210000D03*
D14*
%TO.P,J21,2,Pin_2*%
%TO.N,+3.3V*%
X98960000Y-121750000D03*
%TO.P,J21,3,Pin_3*%
%TO.N,GND*%
X101500000Y-119210000D03*
%TO.P,J21,4,Pin_4*%
%TO.N,SDA*%
X101500000Y-121750000D03*
%TO.P,J21,5,Pin_5*%
%TO.N,+5V*%
X104040000Y-119210000D03*
%TO.P,J21,6,Pin_6*%
%TO.N,SCL*%
X104040000Y-121750000D03*
%TO.P,J21,7,Pin_7*%
%TO.N,+12V*%
X106580000Y-119210000D03*
%TO.P,J21,8,Pin_8*%
%TO.N,RST*%
X106580000Y-121750000D03*
%TD*%
D15*
%TO.P,D3,1,K*%
%TO.N,GND*%
X78500000Y-33250000D03*
D16*
%TO.P,D3,2,A*%
%TO.N,Net-(D3-A)*%
X78500000Y-35790000D03*
%TD*%
D10*
%TO.P,J5,1,Pin_1*%
%TO.N,GND*%
X32660000Y-31805000D03*
D11*
%TO.P,J5,2,Pin_2*%
%TO.N,+12V*%
X37660000Y-31805000D03*
%TD*%
D13*
%TO.P,J9,1,Pin_1*%
%TO.N,GND*%
X86500000Y-121790000D03*
D14*
%TO.P,J9,2,Pin_2*%
%TO.N,TXP*%
X86500000Y-119250000D03*
%TO.P,J9,3,Pin_3*%
%TO.N,unconnected-(J9-Pin_3-Pad3)*%
X89040000Y-121790000D03*
%TO.P,J9,4,Pin_4*%
%TO.N,unconnected-(J9-Pin_4-Pad4)*%
X89040000Y-119250000D03*
%TO.P,J9,5,Pin_5*%
%TO.N,GPIO0*%
X91580000Y-121790000D03*
%TO.P,J9,6,Pin_6*%
%TO.N,unconnected-(J9-Pin_6-Pad6)*%
X91580000Y-119250000D03*
%TO.P,J9,7,Pin_7*%
%TO.N,RXP*%
X94120000Y-121790000D03*
%TO.P,J9,8,Pin_8*%
%TO.N,+3.3V*%
X94120000Y-119250000D03*
%TD*%
D13*
%TO.P,J17,1,Pin_1*%
%TO.N,+5V*%
X76130000Y-52960000D03*
D14*
%TO.P,J17,2,Pin_2*%
X76130000Y-55500000D03*
%TO.P,J17,3,Pin_3*%
%TO.N,D1-RFW26*%
X78670000Y-52960000D03*
%TO.P,J17,4,Pin_4*%
X78670000Y-55500000D03*
%TO.P,J17,5,Pin_5*%
%TO.N,D0-RFW26*%
X81210000Y-52960000D03*
%TO.P,J17,6,Pin_6*%
X81210000Y-55500000D03*
%TO.P,J17,7,Pin_7*%
%TO.N,GND*%
X83750000Y-52960000D03*
%TO.P,J17,8,Pin_8*%
X83750000Y-55500000D03*
%TD*%
D18*
%TO.P,K2,1*%
%TO.N,Net-(J16-Pin_3)*%
X64250000Y-75500000D03*
D19*
%TO.P,K2,2*%
%TO.N,Net-(D7-A)*%
X58200000Y-77450000D03*
D18*
%TO.P,K2,3*%
%TO.N,Net-(J14-Pin_1)*%
X58200000Y-89650000D03*
%TO.P,K2,4*%
%TO.N,Net-(J14-Pin_3)*%
X70250000Y-89700000D03*
D19*
%TO.P,K2,5*%
%TO.N,Net-(D7-K)*%
X70200000Y-77450000D03*
%TD*%
D13*
%TO.P,J16,1,Pin_1*%
%TO.N,GND*%
X64340000Y-107000000D03*
D14*
%TO.P,J16,2,Pin_2*%
%TO.N,Net-(J14-Pin_2)*%
X66880000Y-107000000D03*
%TO.P,J16,3,Pin_3*%
%TO.N,Net-(J16-Pin_3)*%
X69420000Y-107000000D03*
%TO.P,J16,4,Pin_4*%
%TO.N,12VOUT*%
X71960000Y-107000000D03*
%TO.P,J16,5,Pin_5*%
X74500000Y-107000000D03*
%TD*%
D12*
%TO.P,RV1,1*%
%TO.N,Net-(J22-Pin_1)*%
X35000000Y-97250000D03*
%TO.P,RV1,2*%
%TO.N,Net-(J22-Pin_2)*%
X40000000Y-99250000D03*
%TD*%
D15*
%TO.P,D8,1,K*%
%TO.N,Net-(D7-A)*%
X78460000Y-107000000D03*
D16*
%TO.P,D8,2,A*%
%TO.N,Net-(D8-A)*%
X81000000Y-107000000D03*
%TD*%
D20*
%TO.N,*%
X23500000Y-121000000D03*
X115000000Y-121000000D03*
X115000000Y-30000000D03*
X23500000Y-29750000D03*
%TO.N,Net-(U3-EN)*%
X116574800Y-76852700D03*
X115723800Y-57943200D03*
X106969000Y-55026100D03*
X95792800Y-80318400D03*
%TO.N,Net-(U3-~{RST})*%
X108827800Y-47673800D03*
X99319900Y-80319600D03*
%TO.N,Net-(Q5-B)*%
X104903500Y-58567700D03*
X99006300Y-70400000D03*
%TO.N,Net-(Q4-B)*%
X84957600Y-49450000D03*
X70074000Y-83600000D03*
X68671100Y-92685100D03*
X75002300Y-104005900D03*
%TO.N,Net-(Q3-B)*%
X76831900Y-88940300D03*
X69258100Y-67855700D03*
X54158100Y-63475600D03*
X105384500Y-50086200D03*
X117437900Y-50086200D03*
X117546300Y-99626900D03*
%TO.N,Net-(Q2-B)*%
X88160400Y-66168300D03*
X94714300Y-55862600D03*
%TO.N,Net-(Q1-B)*%
X39205600Y-91902800D03*
X110804000Y-102077200D03*
%TO.N,SDA*%
X115711700Y-68288400D03*
%TO.N,SDA{slash}RX*%
X95341800Y-89526300D03*
%TO.N,SCL{slash}TX*%
X89571900Y-83572200D03*
%TO.N,+5V*%
X80616100Y-37416000D03*
X112795300Y-52064900D03*
X104265700Y-116759200D03*
%TO.N,Net-(D17-A)*%
X60727500Y-113475300D03*
X22430000Y-56781700D03*
X65361700Y-56887100D03*
X96469800Y-68325500D03*
%TO.N,GPIO2*%
X85544400Y-60550100D03*
X84984300Y-98984600D03*
%TO.N,GPIO0*%
X104111300Y-97007500D03*
X92374000Y-100542900D03*
X92487800Y-90146600D03*
X78254700Y-63142400D03*
X82601900Y-119882800D03*
X83045500Y-123502100D03*
%TO.N,D1*%
X72647400Y-38894900D03*
X80012800Y-102542300D03*
%TO.N,D0*%
X99473200Y-100114600D03*
%TO.N,Net-(D7-A)*%
X77314700Y-93276000D03*
%TO.N,Net-(D7-K)*%
X50948100Y-95825100D03*
%TO.N,Net-(D5-A)*%
X92252900Y-64364800D03*
X96441700Y-57580100D03*
X86268400Y-43247300D03*
X53587300Y-98694900D03*
%TO.N,+12V*%
X115309800Y-26505000D03*
%TO.N,+3.3V*%
X87970300Y-38393400D03*
X81679000Y-77650000D03*
%TO.N,GND*%
X82555700Y-68406100D03*
X58648900Y-100631800D03*
X83818000Y-94901900D03*
X99357000Y-83284800D03*
%TD*%
D21*
%TO.N,+12V*%
X106580000Y-117558100D02*
X106580000Y-119210000D01*
X113771000Y-110367100D02*
X106580000Y-117558100D01*
X113771000Y-75691200D02*
X113771000Y-110367100D01*
X115637900Y-52656300D02*
X113909700Y-54384500D01*
X117750000Y-47228515D02*
X115637900Y-49340615D01*
X113909700Y-54384500D02*
X113909700Y-75552500D01*
X113909700Y-75552500D02*
X113771000Y-75691200D01*
X117750000Y-28945200D02*
X117750000Y-47228515D01*
X115309800Y-26505000D02*
X117750000Y-28945200D01*
X115637900Y-49340615D02*
X115637900Y-52656300D01*
D22*
%TO.N,Net-(J22-Pin_3)*%
X47250000Y-98250000D02*
X48250000Y-99250000D01*
X47250000Y-89750000D02*
X47250000Y-98250000D01*
X45266300Y-121016300D02*
X43250000Y-119000000D01*
X49071000Y-121016300D02*
X45266300Y-121016300D01*
X50260200Y-119827100D02*
X49071000Y-121016300D01*
X50260200Y-101260200D02*
X50260200Y-119827100D01*
X48250000Y-99250000D02*
X50260200Y-101260200D01*
%TO.N,Net-(J22-Pin_1)*%
X33250000Y-119000000D02*
X33250000Y-116998100D01*
X35000000Y-89900000D02*
X35000000Y-97250000D01*
X35200000Y-89700000D02*
X35000000Y-89900000D01*
X29599400Y-102650600D02*
X35000000Y-97250000D01*
X29599400Y-113347500D02*
X29599400Y-102650600D01*
X33250000Y-116998100D02*
X29599400Y-113347500D01*
%TO.N,Net-(J22-Pin_2)*%
X45710000Y-99710000D02*
X45710000Y-107000000D01*
X43250000Y-97250000D02*
X45710000Y-99710000D01*
X45710000Y-111540000D02*
X38250000Y-119000000D01*
X45710000Y-107000000D02*
X45710000Y-111540000D01*
%TO.N,Net-(U3-EN)*%
X117437900Y-59657300D02*
X115723800Y-57943200D01*
X117437900Y-75989600D02*
X117437900Y-59657300D01*
X116574800Y-76852700D02*
X117437900Y-75989600D01*
X95792800Y-78254800D02*
X95792800Y-80318400D01*
X100679100Y-73368500D02*
X95792800Y-78254800D01*
X100946500Y-73368500D02*
X100679100Y-73368500D01*
X108787700Y-65527300D02*
X100946500Y-73368500D01*
X108787700Y-57917100D02*
X108787700Y-65527300D01*
X106969000Y-56098400D02*
X108787700Y-57917100D01*
X106969000Y-55026100D02*
X106969000Y-56098400D01*
%TO.N,Net-(U3-~{RST})*%
X109789600Y-48635600D02*
X108827800Y-47673800D01*
X109789600Y-55585000D02*
X109789600Y-48635600D01*
X110791500Y-56586900D02*
X109789600Y-55585000D01*
X110791500Y-66357500D02*
X110791500Y-56586900D01*
X101683300Y-75465700D02*
X110791500Y-66357500D01*
X101427900Y-75465700D02*
X101683300Y-75465700D01*
X99319900Y-77573700D02*
X101427900Y-75465700D01*
X99319900Y-80319600D02*
X99319900Y-77573700D01*
%TO.N,Net-(Q5-B)*%
X106758300Y-60422500D02*
X104903500Y-58567700D01*
X106758300Y-64666900D02*
X106758300Y-60422500D01*
X101025200Y-70400000D02*
X106758300Y-64666900D01*
X99006300Y-70400000D02*
X101025200Y-70400000D01*
%TO.N,Net-(Q4-B)*%
X75002300Y-99016300D02*
X75002300Y-104005900D01*
X68671100Y-92685100D02*
X75002300Y-99016300D01*
X68248100Y-81774100D02*
X70074000Y-83600000D01*
X68248100Y-73690700D02*
X68248100Y-81774100D01*
X66448100Y-71890700D02*
X68248100Y-73690700D01*
X66448100Y-68258800D02*
X66448100Y-71890700D01*
X70941000Y-63765900D02*
X66448100Y-68258800D01*
X70941000Y-37934700D02*
X70941000Y-63765900D01*
X77260800Y-31614900D02*
X70941000Y-37934700D01*
X80125600Y-31614900D02*
X77260800Y-31614900D01*
X84235700Y-35725000D02*
X80125600Y-31614900D01*
X84235700Y-48728100D02*
X84235700Y-35725000D01*
X84957600Y-49450000D02*
X84235700Y-48728100D01*
%TO.N,Net-(Q3-B)*%
X72647400Y-84755800D02*
X76831900Y-88940300D01*
X72647400Y-71245000D02*
X72647400Y-84755800D01*
X69258100Y-67855700D02*
X72647400Y-71245000D01*
X54158100Y-30335500D02*
X54158100Y-63475600D01*
X57255800Y-27237800D02*
X54158100Y-30335500D01*
X82536100Y-27237800D02*
X57255800Y-27237800D01*
X105384500Y-50086200D02*
X82536100Y-27237800D01*
X118439800Y-51088100D02*
X117437900Y-50086200D01*
X118439800Y-98733400D02*
X118439800Y-51088100D01*
X117546300Y-99626900D02*
X118439800Y-98733400D01*
%TO.N,Net-(Q2-B)*%
X88160400Y-62416500D02*
X88160400Y-66168300D01*
X94714300Y-55862600D02*
X88160400Y-62416500D01*
%TO.N,Net-(Q1-B)*%
X39041500Y-91738700D02*
X39205600Y-91902800D01*
X39041500Y-35333900D02*
X39041500Y-91738700D01*
X48139500Y-26235900D02*
X39041500Y-35333900D01*
X83335200Y-26235900D02*
X48139500Y-26235900D01*
X102867700Y-45768400D02*
X83335200Y-26235900D01*
X109337300Y-45768400D02*
X102867700Y-45768400D01*
X110804000Y-47235100D02*
X109337300Y-45768400D01*
X110804000Y-55182400D02*
X110804000Y-47235100D01*
X111793400Y-56171800D02*
X110804000Y-55182400D01*
X111793400Y-66772600D02*
X111793400Y-56171800D01*
X110804000Y-67762000D02*
X111793400Y-66772600D01*
X110804000Y-102077200D02*
X110804000Y-67762000D01*
%TO.N,Net-(J16-Pin_3)*%
X64198100Y-100226200D02*
X69420000Y-105448100D01*
X64198100Y-75551900D02*
X64198100Y-100226200D01*
X64250000Y-75500000D02*
X64198100Y-75551900D01*
X69420000Y-107000000D02*
X69420000Y-105448100D01*
%TO.N,Net-(J14-Pin_3)*%
X65700000Y-93249300D02*
X65700000Y-97150000D01*
X69249300Y-89700000D02*
X65700000Y-93249300D01*
X70250000Y-89700000D02*
X69249300Y-89700000D01*
X76250000Y-95700000D02*
X70250000Y-89700000D01*
X76250000Y-102846600D02*
X76250000Y-95700000D01*
X76704200Y-103300800D02*
X76250000Y-102846600D01*
X76704200Y-118545800D02*
X76704200Y-103300800D01*
X76250000Y-119000000D02*
X76704200Y-118545800D01*
%TO.N,Net-(J14-Pin_2)*%
X66880000Y-107000000D02*
X66880000Y-105448100D01*
X66880000Y-107000000D02*
X66880000Y-108551900D01*
X57576500Y-97150000D02*
X57450000Y-97150000D01*
X65874600Y-105448100D02*
X57576500Y-97150000D01*
X66880000Y-105448100D02*
X65874600Y-105448100D01*
X71250000Y-112921900D02*
X66880000Y-108551900D01*
X71250000Y-119000000D02*
X71250000Y-112921900D01*
%TO.N,Net-(J14-Pin_1)*%
X66250000Y-119000000D02*
X66250000Y-116998100D01*
X62450000Y-93900000D02*
X58200000Y-89650000D01*
X62450000Y-99150000D02*
X62450000Y-93900000D01*
X58200000Y-92504700D02*
X58200000Y-89650000D01*
X55947400Y-94757300D02*
X58200000Y-92504700D01*
X55947400Y-106288300D02*
X55947400Y-94757300D01*
X66250000Y-116590900D02*
X55947400Y-106288300D01*
X66250000Y-116998100D02*
X66250000Y-116590900D01*
%TO.N,Net-(J8-Pin_3)*%
X41250000Y-97822300D02*
X41250000Y-75550000D01*
X43170000Y-99742300D02*
X41250000Y-97822300D01*
X43170000Y-107000000D02*
X43170000Y-99742300D01*
%TO.N,SDA*%
X87000000Y-114000000D02*
X87000000Y-112448100D01*
X97540500Y-61540500D02*
X99100000Y-63100000D01*
X95915100Y-61540500D02*
X97540500Y-61540500D01*
X93954800Y-63500800D02*
X95915100Y-61540500D01*
X93954800Y-65069900D02*
X93954800Y-63500800D01*
X86761400Y-72263300D02*
X93954800Y-65069900D01*
X86761400Y-99749100D02*
X86761400Y-72263300D01*
X85611400Y-100899100D02*
X86761400Y-99749100D01*
X85611400Y-111059500D02*
X85611400Y-100899100D01*
X87000000Y-112448100D02*
X85611400Y-111059500D01*
X103051900Y-123301900D02*
X101500000Y-121750000D01*
X107288300Y-123301900D02*
X103051900Y-123301900D01*
X114872900Y-115717300D02*
X107288300Y-123301900D01*
X114872900Y-76147700D02*
X114872900Y-115717300D01*
X115711700Y-75308900D02*
X114872900Y-76147700D01*
X115711700Y-68288400D02*
X115711700Y-75308900D01*
%TO.N,SDA{slash}RX*%
X94259800Y-88444300D02*
X95341800Y-89526300D01*
X91776300Y-88444300D02*
X94259800Y-88444300D01*
X90626200Y-89594400D02*
X91776300Y-88444300D01*
X90626200Y-104660900D02*
X90626200Y-89594400D01*
X93801900Y-107836600D02*
X90626200Y-104660900D01*
X93801900Y-110646400D02*
X93801900Y-107836600D01*
X92000200Y-112448100D02*
X93801900Y-110646400D01*
X89540000Y-112448100D02*
X92000200Y-112448100D01*
X89540000Y-114000000D02*
X89540000Y-112448100D01*
%TO.N,RXP*%
X92080000Y-114000000D02*
X92080000Y-115551900D01*
X92624800Y-115551900D02*
X92080000Y-115551900D01*
X95671900Y-118599000D02*
X92624800Y-115551900D01*
X95671900Y-120238100D02*
X95671900Y-118599000D01*
X94120000Y-121790000D02*
X95671900Y-120238100D01*
%TO.N,SCL*%
X96560000Y-63100000D02*
X96560000Y-64651900D01*
X87170000Y-109500000D02*
X87170000Y-107948100D01*
X87797900Y-73414000D02*
X96560000Y-64651900D01*
X87797900Y-107320200D02*
X87797900Y-73414000D01*
X87170000Y-107948100D02*
X87797900Y-107320200D01*
%TO.N,SCL{slash}TX*%
X89710000Y-109500000D02*
X89710000Y-107948100D01*
X89571900Y-107810000D02*
X89710000Y-107948100D01*
X89571900Y-83572200D02*
X89571900Y-107810000D01*
%TO.N,+5V*%
X76130000Y-55500000D02*
X76130000Y-52960000D01*
X52500000Y-76445000D02*
X54051900Y-76445000D01*
X68000000Y-53750000D02*
X68000000Y-55301900D01*
X76130000Y-41902100D02*
X80616100Y-37416000D01*
X76130000Y-52960000D02*
X76130000Y-41902100D01*
X54051900Y-90738100D02*
X52500000Y-92290000D01*
X54051900Y-76445000D02*
X54051900Y-90738100D01*
X68000000Y-56655800D02*
X68000000Y-55301900D01*
X54051900Y-70603900D02*
X68000000Y-56655800D01*
X54051900Y-76445000D02*
X54051900Y-70603900D01*
X112795300Y-67187700D02*
X112795300Y-52064900D01*
X112517800Y-67465200D02*
X112795300Y-67187700D01*
X112517800Y-108507100D02*
X112517800Y-67465200D01*
X104265700Y-116759200D02*
X112517800Y-108507100D01*
%TO.N,Net-(J15-Pin_6)*%
X50550000Y-35800000D02*
X46000000Y-31250000D01*
X50550000Y-48350000D02*
X50550000Y-35800000D01*
%TO.N,12VOUT*%
X38090000Y-107000000D02*
X38090000Y-108551900D01*
X25650000Y-115053900D02*
X25650000Y-42050000D01*
X31598000Y-121001900D02*
X25650000Y-115053900D01*
X34846400Y-121001900D02*
X31598000Y-121001900D01*
X35335500Y-120512800D02*
X34846400Y-121001900D01*
X35335500Y-111306400D02*
X35335500Y-120512800D01*
X38090000Y-108551900D02*
X35335500Y-111306400D01*
%TO.N,Net-(D17-A)*%
X22430000Y-113263200D02*
X22430000Y-56781700D01*
X31200800Y-122034000D02*
X22430000Y-113263200D01*
X53088100Y-122034000D02*
X31200800Y-122034000D01*
X56017600Y-119104500D02*
X53088100Y-122034000D01*
X56017600Y-118185200D02*
X56017600Y-119104500D01*
X60727500Y-113475300D02*
X56017600Y-118185200D01*
X96469800Y-70330200D02*
X96469800Y-68325500D01*
X98288800Y-72149200D02*
X96469800Y-70330200D01*
X100710800Y-72149200D02*
X98288800Y-72149200D01*
X107785800Y-65074200D02*
X100710800Y-72149200D01*
X107785800Y-58898900D02*
X107785800Y-65074200D01*
X91656000Y-42769100D02*
X107785800Y-58898900D01*
X91656000Y-39603300D02*
X91656000Y-42769100D01*
X81294300Y-29241600D02*
X91656000Y-39603300D01*
X69783700Y-29241600D02*
X81294300Y-29241600D01*
X68420700Y-30604600D02*
X69783700Y-29241600D01*
X68420700Y-32149500D02*
X68420700Y-30604600D01*
X65361700Y-35208500D02*
X68420700Y-32149500D01*
X65361700Y-56887100D02*
X65361700Y-35208500D01*
%TO.N,GPIO2*%
X85544400Y-98424500D02*
X85544400Y-60550100D01*
X84984300Y-98984600D02*
X85544400Y-98424500D01*
%TO.N,D1-RFW26*%
X78670000Y-55500000D02*
X78670000Y-52960000D01*
%TO.N,GPIO0*%
X99452800Y-102564300D02*
X99452800Y-102564200D01*
X99452800Y-103619000D02*
X99452800Y-102564300D01*
X96963300Y-106108500D02*
X99452800Y-103619000D01*
X96963300Y-121166500D02*
X96963300Y-106108500D01*
X94778800Y-123351000D02*
X96963300Y-121166500D01*
X93141000Y-123351000D02*
X94778800Y-123351000D01*
X91580000Y-121790000D02*
X93141000Y-123351000D01*
X96590100Y-94247300D02*
X92487800Y-90145000D01*
X96590100Y-99701600D02*
X96590100Y-94247300D01*
X99452800Y-102564200D02*
X96590100Y-99701600D01*
X92374000Y-90258800D02*
X92374000Y-100542900D01*
X92487800Y-90145000D02*
X92374000Y-90258800D01*
X92487800Y-90145000D02*
X92487800Y-90146600D01*
X89867900Y-123502100D02*
X91580000Y-121790000D01*
X83045500Y-123502100D02*
X89867900Y-123502100D01*
X82601900Y-102157200D02*
X82601900Y-119882800D01*
X80652400Y-100207700D02*
X82601900Y-102157200D01*
X80652400Y-83124700D02*
X80652400Y-100207700D01*
X78254700Y-80727000D02*
X80652400Y-83124700D01*
X78254700Y-63142400D02*
X78254700Y-80727000D01*
X104111300Y-97905700D02*
X104111300Y-97007500D01*
X99452800Y-102564200D02*
X104111300Y-97905700D01*
%TO.N,D0-RFW26*%
X81210000Y-55500000D02*
X81210000Y-52960000D01*
%TO.N,D1*%
X79650500Y-102180000D02*
X80012800Y-102542300D01*
X79650500Y-88634700D02*
X79650500Y-102180000D01*
X76145100Y-85129300D02*
X79650500Y-88634700D01*
X76145100Y-72280600D02*
X76145100Y-85129300D01*
X72647400Y-68782900D02*
X76145100Y-72280600D01*
X72647400Y-38894900D02*
X72647400Y-68782900D01*
%TO.N,D0*%
X59170300Y-28239700D02*
X56160000Y-31250000D01*
X81709300Y-28239700D02*
X59170300Y-28239700D01*
X93011600Y-39542000D02*
X81709300Y-28239700D01*
X93011600Y-40160900D02*
X93011600Y-39542000D01*
X106174900Y-53324200D02*
X93011600Y-40160900D01*
X107674100Y-53324200D02*
X106174900Y-53324200D01*
X108670900Y-54321000D02*
X107674100Y-53324200D01*
X108670900Y-55883400D02*
X108670900Y-54321000D01*
X109789600Y-57002100D02*
X108670900Y-55883400D01*
X109789600Y-65942400D02*
X109789600Y-57002100D01*
X101268200Y-74463800D02*
X109789600Y-65942400D01*
X101002500Y-74463800D02*
X101268200Y-74463800D01*
X97613900Y-77852400D02*
X101002500Y-74463800D01*
X97613900Y-98255300D02*
X97613900Y-77852400D01*
X99473200Y-100114600D02*
X97613900Y-98255300D01*
%TO.N,Net-(D7-A)*%
X78460000Y-107000000D02*
X78460000Y-105398100D01*
X66850500Y-82811800D02*
X77314700Y-93276000D01*
X66850500Y-74942700D02*
X66850500Y-82811800D01*
X65181900Y-73274100D02*
X66850500Y-74942700D01*
X62375900Y-73274100D02*
X65181900Y-73274100D01*
X58200000Y-77450000D02*
X62375900Y-73274100D01*
X77314700Y-102494300D02*
X77314700Y-93276000D01*
X78460000Y-103639600D02*
X77314700Y-102494300D01*
X78460000Y-105398100D02*
X78460000Y-103639600D01*
%TO.N,Net-(D7-K)*%
X50948100Y-91301900D02*
X50948100Y-95825100D01*
X52500000Y-89750000D02*
X50948100Y-91301900D01*
%TO.N,Net-(D5-A)*%
X92252900Y-61768900D02*
X96441700Y-57580100D01*
X92252900Y-64364800D02*
X92252900Y-61768900D01*
X53587300Y-95200100D02*
X53587300Y-98694900D01*
X55447300Y-93340100D02*
X53587300Y-95200100D01*
X55447300Y-74751700D02*
X55447300Y-93340100D01*
X69882900Y-60316100D02*
X55447300Y-74751700D01*
X69882900Y-37526800D02*
X69882900Y-60316100D01*
X76796700Y-30613000D02*
X69882900Y-37526800D01*
X80587000Y-30613000D02*
X76796700Y-30613000D01*
X86268400Y-36294400D02*
X80587000Y-30613000D01*
X86268400Y-43247300D02*
X86268400Y-36294400D01*
%TO.N,Net-(D2-A)*%
X33790000Y-107000000D02*
X33790000Y-105398100D01*
X37458300Y-101729800D02*
X33790000Y-105398100D01*
X37458300Y-79758300D02*
X37458300Y-101729800D01*
X35200000Y-77500000D02*
X37458300Y-79758300D01*
%TO.N,+3.3V*%
X101640000Y-63100000D02*
X101640000Y-64651900D01*
X81679000Y-98402600D02*
X81679000Y-77650000D01*
X83663100Y-100386700D02*
X81679000Y-98402600D01*
X83663100Y-112961300D02*
X83663100Y-100386700D01*
X86644400Y-115942600D02*
X83663100Y-112961300D01*
X90812600Y-115942600D02*
X86644400Y-115942600D01*
X94120000Y-119250000D02*
X90812600Y-115942600D01*
X87970300Y-44172000D02*
X87970300Y-38393400D01*
X105756400Y-61958100D02*
X87970300Y-44172000D01*
X105756400Y-64223700D02*
X105756400Y-61958100D01*
X105328200Y-64651900D02*
X105756400Y-64223700D01*
X101640000Y-64651900D02*
X105328200Y-64651900D01*
D21*
%TO.N,GND*%
X83750000Y-55500000D02*
X83750000Y-52960000D01*
X48250000Y-107000000D02*
X48250000Y-119000000D01*
X32660000Y-65438100D02*
X32660000Y-31805000D01*
X29000000Y-69098100D02*
X32660000Y-65438100D01*
X29000000Y-70750000D02*
X29000000Y-69098100D01*
X78500000Y-33250000D02*
X80201900Y-33250000D01*
X83750000Y-55500000D02*
X83750000Y-57151900D01*
X83155800Y-68406100D02*
X82555700Y-68406100D01*
X83155800Y-57746100D02*
X83155800Y-68406100D01*
X83750000Y-57151900D02*
X83155800Y-57746100D01*
X83750000Y-55500000D02*
X85401900Y-55500000D01*
X83750000Y-52960000D02*
X83750000Y-51308100D01*
X83133700Y-50691800D02*
X83750000Y-51308100D01*
X83133700Y-36181800D02*
X83133700Y-50691800D01*
X80201900Y-33250000D02*
X83133700Y-36181800D01*
X58648900Y-101308900D02*
X58648900Y-100631800D01*
X64340000Y-107000000D02*
X58648900Y-101308900D01*
X104180000Y-62665500D02*
X104180000Y-63100000D01*
X95575200Y-54060700D02*
X104180000Y-62665500D01*
X86841200Y-54060700D02*
X95575200Y-54060700D01*
X85401900Y-55500000D02*
X86841200Y-54060700D01*
X64340000Y-113092400D02*
X64340000Y-107000000D01*
X69050600Y-117803000D02*
X64340000Y-113092400D01*
X69050600Y-119779700D02*
X69050600Y-117803000D01*
X70971100Y-121700200D02*
X69050600Y-119779700D01*
X84758300Y-121700200D02*
X70971100Y-121700200D01*
X84848100Y-121790000D02*
X84758300Y-121700200D01*
X86500000Y-121790000D02*
X84848100Y-121790000D01*
X83818000Y-69068300D02*
X83155800Y-68406100D01*
X83818000Y-94901900D02*
X83818000Y-69068300D01*
X99357000Y-93085500D02*
X99357000Y-83284800D01*
X100544300Y-94272800D02*
X99357000Y-93085500D01*
X103928400Y-94272800D02*
X100544300Y-94272800D01*
X105957000Y-96301400D02*
X103928400Y-94272800D01*
X105957000Y-98671000D02*
X105957000Y-96301400D01*
X101500000Y-103128000D02*
X105957000Y-98671000D01*
X101500000Y-119210000D02*
X101500000Y-103128000D01*
D22*
%TO.N,12V*%
X49625300Y-78650300D02*
X52500000Y-81525000D01*
X49625300Y-51325300D02*
X49625300Y-78650300D01*
X45450000Y-47150000D02*
X49625300Y-51325300D01*
X52500000Y-87210000D02*
X52500000Y-81525000D01*
%TD*%
M02*
