%TF.GenerationSoftware,KiCad,Pcbnew,7.0.8*%
%TF.CreationDate,2024-12-20T13:37:24-03:00*%
%TF.ProjectId,Tesseract,54657373-6572-4616-9374-2e6b69636164,rev?*%
%TF.SameCoordinates,Original*%
%TF.FileFunction,Copper,L1,Top*%
%TF.FilePolarity,Positive*%
%FSLAX46Y46*%
G04 Gerber Fmt 4.6, Leading zero omitted, Abs format (unit mm)*
G04 Created by KiCad (PCBNEW 7.0.8) date 2024-12-20 13:37:24*
%MOMM*%
%LPD*%
G01*
G04 APERTURE LIST*
G04 Aperture macros list*
%AMRoundRect*
0 Rectangle with rounded corners*
0 $1 Rounding radius*
0 $2 $3 $4 $5 $6 $7 $8 $9 X,Y pos of 4 corners*
0 Add a 4 corners polygon primitive as box body*
4,1,4,$2,$3,$4,$5,$6,$7,$8,$9,$2,$3,0*
0 Add four circle primitives for the rounded corners*
1,1,$1+$1,$2,$3*
1,1,$1+$1,$4,$5*
1,1,$1+$1,$6,$7*
1,1,$1+$1,$8,$9*
0 Add four rect primitives between the rounded corners*
20,1,$1+$1,$2,$3,$4,$5,0*
20,1,$1+$1,$4,$5,$6,$7,0*
20,1,$1+$1,$6,$7,$8,$9,0*
20,1,$1+$1,$8,$9,$2,$3,0*%
G04 Aperture macros list end*
%TA.AperFunction,ComponentPad*%
%ADD10R,2.600000X2.600000*%
%TD*%
%TA.AperFunction,ComponentPad*%
%ADD11C,2.600000*%
%TD*%
%TA.AperFunction,SMDPad,CuDef*%
%ADD12R,1.000000X2.500000*%
%TD*%
%TA.AperFunction,SMDPad,CuDef*%
%ADD13R,1.800000X1.000000*%
%TD*%
%TA.AperFunction,SMDPad,CuDef*%
%ADD14RoundRect,0.250000X-1.000000X-0.900000X1.000000X-0.900000X1.000000X0.900000X-1.000000X0.900000X0*%
%TD*%
%TA.AperFunction,SMDPad,CuDef*%
%ADD15RoundRect,0.250000X0.625000X-0.400000X0.625000X0.400000X-0.625000X0.400000X-0.625000X-0.400000X0*%
%TD*%
%TA.AperFunction,ComponentPad*%
%ADD16C,1.600000*%
%TD*%
%TA.AperFunction,SMDPad,CuDef*%
%ADD17RoundRect,0.250000X0.600000X-1.400000X0.600000X1.400000X-0.600000X1.400000X-0.600000X-1.400000X0*%
%TD*%
%TA.AperFunction,SMDPad,CuDef*%
%ADD18RoundRect,0.250000X1.050000X0.550000X-1.050000X0.550000X-1.050000X-0.550000X1.050000X-0.550000X0*%
%TD*%
%TA.AperFunction,SMDPad,CuDef*%
%ADD19RoundRect,0.112500X-0.187500X-0.112500X0.187500X-0.112500X0.187500X0.112500X-0.187500X0.112500X0*%
%TD*%
%TA.AperFunction,ComponentPad*%
%ADD20R,1.700000X1.700000*%
%TD*%
%TA.AperFunction,ComponentPad*%
%ADD21O,1.700000X1.700000*%
%TD*%
%TA.AperFunction,SMDPad,CuDef*%
%ADD22RoundRect,0.250000X-0.625000X0.400000X-0.625000X-0.400000X0.625000X-0.400000X0.625000X0.400000X0*%
%TD*%
%TA.AperFunction,SMDPad,CuDef*%
%ADD23RoundRect,0.250000X-0.650000X0.325000X-0.650000X-0.325000X0.650000X-0.325000X0.650000X0.325000X0*%
%TD*%
%TA.AperFunction,ComponentPad*%
%ADD24R,1.800000X1.800000*%
%TD*%
%TA.AperFunction,ComponentPad*%
%ADD25C,1.800000*%
%TD*%
%TA.AperFunction,SMDPad,CuDef*%
%ADD26RoundRect,0.112500X-0.112500X0.187500X-0.112500X-0.187500X0.112500X-0.187500X0.112500X0.187500X0*%
%TD*%
%TA.AperFunction,ComponentPad*%
%ADD27C,1.710000*%
%TD*%
%TA.AperFunction,SMDPad,CuDef*%
%ADD28RoundRect,0.250000X0.900000X-1.000000X0.900000X1.000000X-0.900000X1.000000X-0.900000X-1.000000X0*%
%TD*%
%TA.AperFunction,SMDPad,CuDef*%
%ADD29RoundRect,0.250000X-0.900000X1.000000X-0.900000X-1.000000X0.900000X-1.000000X0.900000X1.000000X0*%
%TD*%
%TA.AperFunction,SMDPad,CuDef*%
%ADD30RoundRect,0.150000X-0.150000X0.587500X-0.150000X-0.587500X0.150000X-0.587500X0.150000X0.587500X0*%
%TD*%
%TA.AperFunction,ComponentPad*%
%ADD31C,3.000000*%
%TD*%
%TA.AperFunction,ComponentPad*%
%ADD32C,2.500000*%
%TD*%
%TA.AperFunction,SMDPad,CuDef*%
%ADD33RoundRect,0.250000X-2.000000X1.400000X-2.000000X-1.400000X2.000000X-1.400000X2.000000X1.400000X0*%
%TD*%
%TA.AperFunction,SMDPad,CuDef*%
%ADD34RoundRect,0.150000X0.587500X0.150000X-0.587500X0.150000X-0.587500X-0.150000X0.587500X-0.150000X0*%
%TD*%
%TA.AperFunction,SMDPad,CuDef*%
%ADD35RoundRect,0.150000X-0.587500X-0.150000X0.587500X-0.150000X0.587500X0.150000X-0.587500X0.150000X0*%
%TD*%
%TA.AperFunction,SMDPad,CuDef*%
%ADD36R,1.250000X1.000000*%
%TD*%
%TA.AperFunction,SMDPad,CuDef*%
%ADD37RoundRect,0.250000X-0.400000X-0.625000X0.400000X-0.625000X0.400000X0.625000X-0.400000X0.625000X0*%
%TD*%
%TA.AperFunction,SMDPad,CuDef*%
%ADD38R,1.500000X2.000000*%
%TD*%
%TA.AperFunction,SMDPad,CuDef*%
%ADD39R,3.800000X2.000000*%
%TD*%
%TA.AperFunction,SMDPad,CuDef*%
%ADD40RoundRect,0.112500X0.187500X0.112500X-0.187500X0.112500X-0.187500X-0.112500X0.187500X-0.112500X0*%
%TD*%
%TA.AperFunction,ViaPad*%
%ADD41C,2.000000*%
%TD*%
%TA.AperFunction,Conductor*%
%ADD42C,0.600000*%
%TD*%
%TA.AperFunction,Conductor*%
%ADD43C,0.800000*%
%TD*%
G04 APERTURE END LIST*
D10*
%TO.P,J22,1,Pin_1*%
%TO.N,Net-(J22-Pin_1)*%
X33250000Y-119000000D03*
D11*
%TO.P,J22,2,Pin_2*%
%TO.N,Net-(J22-Pin_2)*%
X38250000Y-119000000D03*
%TO.P,J22,3,Pin_3*%
%TO.N,Net-(J22-Pin_3)*%
X43250000Y-119000000D03*
%TO.P,J22,4,Pin_4*%
%TO.N,GND*%
X48250000Y-119000000D03*
%TO.P,J22,5,Pin_5*%
%TO.N,Net-(D5-K)*%
X53250000Y-119000000D03*
%TO.P,J22,6,Pin_6*%
%TO.N,BTN*%
X58250000Y-119000000D03*
%TD*%
D12*
%TO.P,U3,1,~{RST}*%
%TO.N,Net-(U3-~{RST})*%
X99500000Y-77650000D03*
%TO.P,U3,2,ADC*%
%TO.N,unconnected-(U3-ADC-Pad2)*%
X97500000Y-77650000D03*
%TO.P,U3,3,EN*%
%TO.N,Net-(U3-EN)*%
X95500000Y-77650000D03*
%TO.P,U3,4,GPIO16*%
%TO.N,GPIO16*%
X93500000Y-77650000D03*
%TO.P,U3,5,GPIO14*%
%TO.N,GPIO14*%
X91500000Y-77650000D03*
%TO.P,U3,6,GPIO12*%
%TO.N,GPIO12*%
X89500000Y-77650000D03*
%TO.P,U3,7,GPIO13*%
%TO.N,GPIO13*%
X87500000Y-77650000D03*
%TO.P,U3,8,VCC*%
%TO.N,+3.3V*%
X85500000Y-77650000D03*
D13*
%TO.P,U3,9,CS0*%
%TO.N,unconnected-(U3-CS0-Pad9)*%
X84000000Y-80250000D03*
%TO.P,U3,10,MISO*%
%TO.N,unconnected-(U3-MISO-Pad10)*%
X84000000Y-82250000D03*
%TO.P,U3,11,GPIO9*%
%TO.N,unconnected-(U3-GPIO9-Pad11)*%
X84000000Y-84250000D03*
%TO.P,U3,12,GPIO10*%
%TO.N,unconnected-(U3-GPIO10-Pad12)*%
X84000000Y-86250000D03*
%TO.P,U3,13,MOSI*%
%TO.N,unconnected-(U3-MOSI-Pad13)*%
X84000000Y-88250000D03*
%TO.P,U3,14,SCLK*%
%TO.N,unconnected-(U3-SCLK-Pad14)*%
X84000000Y-90250000D03*
D12*
%TO.P,U3,15,GND*%
%TO.N,GND*%
X85500000Y-92850000D03*
%TO.P,U3,16,GPIO15*%
%TO.N,GPIO15*%
X87500000Y-92850000D03*
%TO.P,U3,17,GPIO2*%
%TO.N,GPIO2*%
X89500000Y-92850000D03*
%TO.P,U3,18,GPIO0*%
%TO.N,GPIO0*%
X91500000Y-92850000D03*
%TO.P,U3,19,GPIO4*%
%TO.N,GPIO4*%
X93500000Y-92850000D03*
%TO.P,U3,20,GPIO5*%
%TO.N,GPIO5*%
X95500000Y-92850000D03*
%TO.P,U3,21,GPIO3/RXD*%
%TO.N,SDA{slash}RX*%
X97500000Y-92850000D03*
%TO.P,U3,22,GPIO1/TXD*%
%TO.N,SCL{slash}TX*%
X99500000Y-92850000D03*
%TD*%
D14*
%TO.P,D12,1,A1*%
%TO.N,BEEP*%
X76850000Y-40000000D03*
%TO.P,D12,2,A2*%
%TO.N,GND*%
X81150000Y-40000000D03*
%TD*%
D15*
%TO.P,R23,1*%
%TO.N,GPIO15*%
X81708300Y-100000000D03*
%TO.P,R23,2*%
%TO.N,GND*%
X81708300Y-96900000D03*
%TD*%
D16*
%TO.P,RV3,1*%
%TO.N,Net-(J14-Pin_1)*%
X62450000Y-99150000D03*
%TO.P,RV3,2*%
%TO.N,Net-(J14-Pin_2)*%
X57450000Y-97150000D03*
%TD*%
D17*
%TO.P,D7,1,K*%
%TO.N,Net-(D7-K)*%
X74450000Y-81400000D03*
%TO.P,D7,2,A*%
%TO.N,Net-(D7-A)*%
X74450000Y-75900000D03*
%TD*%
D18*
%TO.P,C4,1*%
%TO.N,+3.3V*%
X76550000Y-60250000D03*
%TO.P,C4,2*%
%TO.N,GND*%
X72950000Y-60250000D03*
%TD*%
D19*
%TO.P,D17,1,K*%
%TO.N,BTN*%
X63150000Y-103500000D03*
%TO.P,D17,2,A*%
%TO.N,Net-(D17-A)*%
X65250000Y-103500000D03*
%TD*%
D20*
%TO.P,J6,1,Pin_1*%
%TO.N,TXP*%
X92250000Y-109500000D03*
D21*
%TO.P,J6,2,Pin_2*%
%TO.N,SCL{slash}TX*%
X89710000Y-109500000D03*
%TO.P,J6,3,Pin_3*%
%TO.N,SCL*%
X87170000Y-109500000D03*
%TD*%
D22*
%TO.P,R7,1*%
%TO.N,Net-(D5-A)*%
X87068600Y-70400000D03*
%TO.P,R7,2*%
%TO.N,GPIO13*%
X87068600Y-73500000D03*
%TD*%
%TO.P,R25,1*%
%TO.N,Net-(D3-A)*%
X82920000Y-33000000D03*
%TO.P,R25,2*%
%TO.N,+5V*%
X82920000Y-36100000D03*
%TD*%
D20*
%TO.P,J1,1,Pin_1*%
%TO.N,12V*%
X52500000Y-81525000D03*
D21*
%TO.P,J1,2,Pin_2*%
%TO.N,Net-(D2-K)*%
X52500000Y-78985000D03*
%TO.P,J1,3,Pin_3*%
%TO.N,+5V*%
X52500000Y-76445000D03*
%TD*%
D23*
%TO.P,C1,1*%
%TO.N,12V*%
X55250000Y-45800000D03*
%TO.P,C1,2*%
%TO.N,GND*%
X55250000Y-48750000D03*
%TD*%
D15*
%TO.P,R16,1*%
%TO.N,Net-(Q3-B)*%
X74450000Y-88000000D03*
%TO.P,R16,2*%
%TO.N,GND*%
X74450000Y-84900000D03*
%TD*%
D20*
%TO.P,J13,1,Pin_1*%
%TO.N,unconnected-(J13-Pin_1-Pad1)*%
X106550000Y-28850000D03*
D21*
%TO.P,J13,2,Pin_2*%
%TO.N,unconnected-(J13-Pin_2-Pad2)*%
X104010000Y-28850000D03*
%TO.P,J13,3,Pin_3*%
%TO.N,unconnected-(J13-Pin_3-Pad3)*%
X101470000Y-28850000D03*
%TO.P,J13,4,Pin_4*%
%TO.N,unconnected-(J13-Pin_4-Pad4)*%
X98930000Y-28850000D03*
%TO.P,J13,5,Pin_5*%
%TO.N,unconnected-(J13-Pin_5-Pad5)*%
X96390000Y-28850000D03*
%TO.P,J13,6,Pin_6*%
%TO.N,unconnected-(J13-Pin_6-Pad6)*%
X93850000Y-28850000D03*
%TD*%
D24*
%TO.P,D4,1,K*%
%TO.N,Net-(D2-A)*%
X33790000Y-107000000D03*
D25*
%TO.P,D4,2,A*%
%TO.N,Net-(D4-A)*%
X31250000Y-107000000D03*
%TD*%
D10*
%TO.P,J14,1,Pin_1*%
%TO.N,Net-(J14-Pin_1)*%
X66250000Y-119000000D03*
D11*
%TO.P,J14,2,Pin_2*%
%TO.N,Net-(J14-Pin_2)*%
X71250000Y-119000000D03*
%TO.P,J14,3,Pin_3*%
%TO.N,Net-(J14-Pin_3)*%
X76250000Y-119000000D03*
%TD*%
D10*
%TO.P,J15,1,Pin_1*%
%TO.N,BEEP*%
X71400000Y-31250000D03*
D11*
%TO.P,J15,2,Pin_2*%
%TO.N,LED*%
X66320000Y-31250000D03*
%TO.P,J15,3,Pin_3*%
%TO.N,D1*%
X61240000Y-31250000D03*
%TO.P,J15,4,Pin_4*%
%TO.N,D0*%
X56160000Y-31250000D03*
%TO.P,J15,5,Pin_5*%
%TO.N,GND*%
X51080000Y-31250000D03*
%TO.P,J15,6,Pin_6*%
%TO.N,Net-(J15-Pin_6)*%
X46000000Y-31250000D03*
%TD*%
D15*
%TO.P,R10,1*%
%TO.N,Net-(D8-A)*%
X75000000Y-100000000D03*
%TO.P,R10,2*%
%TO.N,Net-(D7-K)*%
X75000000Y-96900000D03*
%TD*%
D26*
%TO.P,D15,1,K*%
%TO.N,D0-RFW26*%
X82500000Y-59500000D03*
%TO.P,D15,2,A*%
%TO.N,GPIO0*%
X82500000Y-61600000D03*
%TD*%
D17*
%TO.P,D2,1,K*%
%TO.N,Net-(D2-K)*%
X30500000Y-81750000D03*
%TO.P,D2,2,A*%
%TO.N,Net-(D2-A)*%
X30500000Y-76250000D03*
%TD*%
D22*
%TO.P,R21,1*%
%TO.N,GPIO15*%
X88416700Y-96900000D03*
%TO.P,R21,2*%
%TO.N,Net-(Q4-B)*%
X88416700Y-100000000D03*
%TD*%
D15*
%TO.P,R24,1*%
%TO.N,Net-(Q5-B)*%
X115500000Y-73500000D03*
%TO.P,R24,2*%
%TO.N,GND*%
X115500000Y-70400000D03*
%TD*%
D27*
%TO.P,F1,1*%
%TO.N,+12V*%
X26850000Y-36950000D03*
%TO.P,F1,2*%
%TO.N,12VOUT*%
X25650000Y-42050000D03*
%TD*%
D28*
%TO.P,D18,1,A1*%
%TO.N,BTN*%
X58500000Y-107650000D03*
%TO.P,D18,2,A2*%
%TO.N,GND*%
X58500000Y-103350000D03*
%TD*%
D29*
%TO.P,D9,1,A1*%
%TO.N,D0*%
X60450000Y-44750000D03*
%TO.P,D9,2,A2*%
%TO.N,GND*%
X60450000Y-49050000D03*
%TD*%
D30*
%TO.P,Q1,1,B*%
%TO.N,Net-(Q1-B)*%
X31200000Y-92062500D03*
%TO.P,Q1,2,E*%
%TO.N,GND*%
X29300000Y-92062500D03*
%TO.P,Q1,3,C*%
%TO.N,Net-(D2-A)*%
X30250000Y-93937500D03*
%TD*%
D20*
%TO.P,J3,1,Pin_1*%
%TO.N,GND*%
X29000000Y-70750000D03*
%TD*%
%TO.P,J19,1,Pin_1*%
%TO.N,+5V*%
X68000000Y-53750000D03*
%TD*%
D22*
%TO.P,R18,1*%
%TO.N,+3.3V*%
X110761400Y-70400000D03*
%TO.P,R18,2*%
%TO.N,GPIO14*%
X110761400Y-73500000D03*
%TD*%
%TO.P,R5,1*%
%TO.N,+3.3V*%
X106022900Y-70400000D03*
%TO.P,R5,2*%
%TO.N,Net-(U3-EN)*%
X106022900Y-73500000D03*
%TD*%
D15*
%TO.P,R1,1*%
%TO.N,Net-(D4-A)*%
X31000000Y-100250000D03*
%TO.P,R1,2*%
%TO.N,Net-(D2-K)*%
X31000000Y-97150000D03*
%TD*%
%TO.P,R12,1*%
%TO.N,+3.3V*%
X90300000Y-105700000D03*
%TO.P,R12,2*%
%TO.N,GPIO2*%
X90300000Y-102600000D03*
%TD*%
D20*
%TO.P,J8,1,Pin_1*%
%TO.N,GND*%
X48250000Y-107000000D03*
D21*
%TO.P,J8,2,Pin_2*%
%TO.N,Net-(J22-Pin_2)*%
X45710000Y-107000000D03*
%TO.P,J8,3,Pin_3*%
%TO.N,Net-(J8-Pin_3)*%
X43170000Y-107000000D03*
%TO.P,J8,4,Pin_4*%
%TO.N,12VOUT*%
X40630000Y-107000000D03*
%TO.P,J8,5,Pin_5*%
X38090000Y-107000000D03*
%TD*%
D22*
%TO.P,R2,1*%
%TO.N,GPIO4*%
X108541700Y-96900000D03*
%TO.P,R2,2*%
%TO.N,Net-(Q1-B)*%
X108541700Y-100000000D03*
%TD*%
%TO.P,R20,1*%
%TO.N,Net-(D17-A)*%
X96545700Y-70400000D03*
%TO.P,R20,2*%
%TO.N,GPIO14*%
X96545700Y-73500000D03*
%TD*%
D16*
%TO.P,RV2,1*%
%TO.N,Net-(J22-Pin_2)*%
X43250000Y-97250000D03*
%TO.P,RV2,2*%
%TO.N,Net-(J22-Pin_3)*%
X48250000Y-99250000D03*
%TD*%
D31*
%TO.P,K1,1*%
%TO.N,Net-(J8-Pin_3)*%
X41250000Y-75550000D03*
D32*
%TO.P,K1,2*%
%TO.N,Net-(D2-A)*%
X35200000Y-77500000D03*
D31*
%TO.P,K1,3*%
%TO.N,Net-(J22-Pin_1)*%
X35200000Y-89700000D03*
%TO.P,K1,4*%
%TO.N,Net-(J22-Pin_3)*%
X47250000Y-89750000D03*
D32*
%TO.P,K1,5*%
%TO.N,Net-(D2-K)*%
X47200000Y-77500000D03*
%TD*%
D19*
%TO.P,D5,1,K*%
%TO.N,Net-(D5-K)*%
X67950000Y-103500000D03*
%TO.P,D5,2,A*%
%TO.N,Net-(D5-A)*%
X70050000Y-103500000D03*
%TD*%
D29*
%TO.P,D10,1,A1*%
%TO.N,D1*%
X66000000Y-44750000D03*
%TO.P,D10,2,A2*%
%TO.N,GND*%
X66000000Y-49050000D03*
%TD*%
D33*
%TO.P,D1,1,K*%
%TO.N,12V*%
X40400000Y-47500000D03*
%TO.P,D1,2,A*%
%TO.N,+12V*%
X31600000Y-47500000D03*
%TD*%
D27*
%TO.P,F2,1*%
%TO.N,12V*%
X45450000Y-47150000D03*
%TO.P,F2,2*%
%TO.N,Net-(J15-Pin_6)*%
X50550000Y-48350000D03*
%TD*%
D15*
%TO.P,R15,1*%
%TO.N,Net-(D14-A)*%
X95125000Y-100000000D03*
%TO.P,R15,2*%
%TO.N,GPIO2*%
X95125000Y-96900000D03*
%TD*%
D20*
%TO.P,J2,1,Pin_1*%
%TO.N,12V*%
X29000000Y-53750000D03*
%TD*%
D26*
%TO.P,D16,1,K*%
%TO.N,D1-RFW26*%
X80000000Y-59400000D03*
%TO.P,D16,2,A*%
%TO.N,GPIO2*%
X80000000Y-61500000D03*
%TD*%
D15*
%TO.P,R8,1*%
%TO.N,GPIO12*%
X91807100Y-73500000D03*
%TO.P,R8,2*%
%TO.N,Net-(Q2-B)*%
X91807100Y-70400000D03*
%TD*%
D22*
%TO.P,R13,1*%
%TO.N,GPIO5*%
X115250000Y-96900000D03*
%TO.P,R13,2*%
%TO.N,Net-(Q3-B)*%
X115250000Y-100000000D03*
%TD*%
D15*
%TO.P,R22,1*%
%TO.N,GPIO16*%
X101284300Y-73500000D03*
%TO.P,R22,2*%
%TO.N,Net-(Q5-B)*%
X101284300Y-70400000D03*
%TD*%
D16*
%TO.P,RV4,1*%
%TO.N,Net-(J14-Pin_2)*%
X70700000Y-99150000D03*
%TO.P,RV4,2*%
%TO.N,Net-(J14-Pin_3)*%
X65700000Y-97150000D03*
%TD*%
D20*
%TO.P,J20,1,Pin_1*%
%TO.N,GND*%
X68000000Y-70750000D03*
%TD*%
%TO.P,J10,1,Pin_1*%
%TO.N,GND*%
X104180000Y-63100000D03*
D21*
%TO.P,J10,2,Pin_2*%
%TO.N,+3.3V*%
X101640000Y-63100000D03*
%TO.P,J10,3,Pin_3*%
%TO.N,SDA*%
X99100000Y-63100000D03*
%TO.P,J10,4,Pin_4*%
%TO.N,SCL*%
X96560000Y-63100000D03*
%TD*%
D34*
%TO.P,Q5,1,B*%
%TO.N,Net-(Q5-B)*%
X83625000Y-45200000D03*
%TO.P,Q5,2,E*%
%TO.N,GND*%
X83625000Y-43300000D03*
%TO.P,Q5,3,C*%
%TO.N,Net-(Q5-C)*%
X81750000Y-44250000D03*
%TD*%
D15*
%TO.P,R3,1*%
%TO.N,Net-(Q1-B)*%
X30500000Y-89000000D03*
%TO.P,R3,2*%
%TO.N,GND*%
X30500000Y-85900000D03*
%TD*%
D20*
%TO.P,J12,1,Pin_1*%
%TO.N,12V*%
X52500000Y-87210000D03*
D21*
%TO.P,J12,2,Pin_2*%
%TO.N,Net-(D7-K)*%
X52500000Y-89750000D03*
%TO.P,J12,3,Pin_3*%
%TO.N,+5V*%
X52500000Y-92290000D03*
%TD*%
D35*
%TO.P,Q2,1,B*%
%TO.N,Net-(Q2-B)*%
X98562500Y-107550000D03*
%TO.P,Q2,2,E*%
%TO.N,GND*%
X98562500Y-109450000D03*
%TO.P,Q2,3,C*%
%TO.N,RST*%
X100437500Y-108500000D03*
%TD*%
D22*
%TO.P,R17,1*%
%TO.N,LED*%
X76000000Y-46500000D03*
%TO.P,R17,2*%
%TO.N,Net-(Q4-C)*%
X76000000Y-49600000D03*
%TD*%
D36*
%TO.P,SW1,1,1*%
%TO.N,GND*%
X76625000Y-28250000D03*
%TO.P,SW1,2,2*%
%TO.N,Net-(U3-~{RST})*%
X84375000Y-28250000D03*
%TD*%
D20*
%TO.P,J7,1,Pin_1*%
%TO.N,RXP*%
X92080000Y-114000000D03*
D21*
%TO.P,J7,2,Pin_2*%
%TO.N,SDA{slash}RX*%
X89540000Y-114000000D03*
%TO.P,J7,3,Pin_3*%
%TO.N,SDA*%
X87000000Y-114000000D03*
%TD*%
D29*
%TO.P,D11,1,A1*%
%TO.N,LED*%
X71550000Y-44750000D03*
%TO.P,D11,2,A2*%
%TO.N,GND*%
X71550000Y-49050000D03*
%TD*%
D20*
%TO.P,J21,1,Pin_1*%
%TO.N,GND*%
X98960000Y-119210000D03*
D21*
%TO.P,J21,2,Pin_2*%
%TO.N,+3.3V*%
X98960000Y-121750000D03*
%TO.P,J21,3,Pin_3*%
%TO.N,GND*%
X101500000Y-119210000D03*
%TO.P,J21,4,Pin_4*%
%TO.N,SDA*%
X101500000Y-121750000D03*
%TO.P,J21,5,Pin_5*%
%TO.N,+5V*%
X104040000Y-119210000D03*
%TO.P,J21,6,Pin_6*%
%TO.N,SCL*%
X104040000Y-121750000D03*
%TO.P,J21,7,Pin_7*%
%TO.N,+12V*%
X106580000Y-119210000D03*
%TO.P,J21,8,Pin_8*%
%TO.N,RST*%
X106580000Y-121750000D03*
%TD*%
D15*
%TO.P,R14,1*%
%TO.N,Net-(D13-A)*%
X93300000Y-105750000D03*
%TO.P,R14,2*%
%TO.N,GPIO0*%
X93300000Y-102650000D03*
%TD*%
D23*
%TO.P,C5,1*%
%TO.N,GND*%
X82300000Y-70475000D03*
%TO.P,C5,2*%
%TO.N,+3.3V*%
X82300000Y-73425000D03*
%TD*%
D24*
%TO.P,D3,1,K*%
%TO.N,GND*%
X78500000Y-33250000D03*
D25*
%TO.P,D3,2,A*%
%TO.N,Net-(D3-A)*%
X78500000Y-35790000D03*
%TD*%
D37*
%TO.P,R19,1*%
%TO.N,BEEP*%
X76200000Y-43750000D03*
%TO.P,R19,2*%
%TO.N,Net-(Q5-C)*%
X79300000Y-43750000D03*
%TD*%
D15*
%TO.P,R4,1*%
%TO.N,+3.3V*%
X86750000Y-36300000D03*
%TO.P,R4,2*%
%TO.N,Net-(U3-~{RST})*%
X86750000Y-33200000D03*
%TD*%
D10*
%TO.P,J5,1,Pin_1*%
%TO.N,GND*%
X32660000Y-31805000D03*
D11*
%TO.P,J5,2,Pin_2*%
%TO.N,+12V*%
X37660000Y-31805000D03*
%TD*%
D38*
%TO.P,U2,1,GND*%
%TO.N,GND*%
X72700000Y-71650000D03*
%TO.P,U2,2,VO*%
%TO.N,+3.3V*%
X75000000Y-71650000D03*
D39*
X75000000Y-65350000D03*
D38*
%TO.P,U2,3,VI*%
%TO.N,+5V*%
X77300000Y-71650000D03*
%TD*%
D37*
%TO.P,R6,1*%
%TO.N,+3.3V*%
X80150000Y-65250000D03*
%TO.P,R6,2*%
%TO.N,GPIO13*%
X83250000Y-65250000D03*
%TD*%
D15*
%TO.P,R11,1*%
%TO.N,+3.3V*%
X101833300Y-100000000D03*
%TO.P,R11,2*%
%TO.N,GPIO0*%
X101833300Y-96900000D03*
%TD*%
D30*
%TO.P,Q3,1,B*%
%TO.N,Net-(Q3-B)*%
X75900000Y-90962500D03*
%TO.P,Q3,2,E*%
%TO.N,GND*%
X74000000Y-90962500D03*
%TO.P,Q3,3,C*%
%TO.N,Net-(D7-A)*%
X74950000Y-92837500D03*
%TD*%
D20*
%TO.P,J9,1,Pin_1*%
%TO.N,GND*%
X86500000Y-121790000D03*
D21*
%TO.P,J9,2,Pin_2*%
%TO.N,TXP*%
X86500000Y-119250000D03*
%TO.P,J9,3,Pin_3*%
%TO.N,unconnected-(J9-Pin_3-Pad3)*%
X89040000Y-121790000D03*
%TO.P,J9,4,Pin_4*%
%TO.N,unconnected-(J9-Pin_4-Pad4)*%
X89040000Y-119250000D03*
%TO.P,J9,5,Pin_5*%
%TO.N,GPIO0*%
X91580000Y-121790000D03*
%TO.P,J9,6,Pin_6*%
%TO.N,unconnected-(J9-Pin_6-Pad6)*%
X91580000Y-119250000D03*
%TO.P,J9,7,Pin_7*%
%TO.N,RXP*%
X94120000Y-121790000D03*
%TO.P,J9,8,Pin_8*%
%TO.N,+3.3V*%
X94120000Y-119250000D03*
%TD*%
D28*
%TO.P,D6,1,A1*%
%TO.N,Net-(D5-K)*%
X53000000Y-107650000D03*
%TO.P,D6,2,A2*%
%TO.N,GND*%
X53000000Y-103350000D03*
%TD*%
D34*
%TO.P,Q4,1,B*%
%TO.N,Net-(Q4-B)*%
X80625000Y-49450000D03*
%TO.P,Q4,2,E*%
%TO.N,GND*%
X80625000Y-47550000D03*
%TO.P,Q4,3,C*%
%TO.N,Net-(Q4-C)*%
X78750000Y-48500000D03*
%TD*%
D40*
%TO.P,D13,1,K*%
%TO.N,D0*%
X98050000Y-103750000D03*
%TO.P,D13,2,A*%
%TO.N,Net-(D13-A)*%
X95950000Y-103750000D03*
%TD*%
D20*
%TO.P,J17,1,Pin_1*%
%TO.N,+5V*%
X76130000Y-52960000D03*
D21*
%TO.P,J17,2,Pin_2*%
X76130000Y-55500000D03*
%TO.P,J17,3,Pin_3*%
%TO.N,D1-RFW26*%
X78670000Y-52960000D03*
%TO.P,J17,4,Pin_4*%
X78670000Y-55500000D03*
%TO.P,J17,5,Pin_5*%
%TO.N,D0-RFW26*%
X81210000Y-52960000D03*
%TO.P,J17,6,Pin_6*%
X81210000Y-55500000D03*
%TO.P,J17,7,Pin_7*%
%TO.N,GND*%
X83750000Y-52960000D03*
%TO.P,J17,8,Pin_8*%
X83750000Y-55500000D03*
%TD*%
D37*
%TO.P,R9,1*%
%TO.N,Net-(Q2-B)*%
X98150000Y-113500000D03*
%TO.P,R9,2*%
%TO.N,GND*%
X101250000Y-113500000D03*
%TD*%
D31*
%TO.P,K2,1*%
%TO.N,Net-(J16-Pin_3)*%
X64250000Y-75500000D03*
D32*
%TO.P,K2,2*%
%TO.N,Net-(D7-A)*%
X58200000Y-77450000D03*
D31*
%TO.P,K2,3*%
%TO.N,Net-(J14-Pin_1)*%
X58200000Y-89650000D03*
%TO.P,K2,4*%
%TO.N,Net-(J14-Pin_3)*%
X70250000Y-89700000D03*
D32*
%TO.P,K2,5*%
%TO.N,Net-(D7-K)*%
X70200000Y-77450000D03*
%TD*%
D20*
%TO.P,J16,1,Pin_1*%
%TO.N,GND*%
X64340000Y-107000000D03*
D21*
%TO.P,J16,2,Pin_2*%
%TO.N,Net-(J14-Pin_2)*%
X66880000Y-107000000D03*
%TO.P,J16,3,Pin_3*%
%TO.N,Net-(J16-Pin_3)*%
X69420000Y-107000000D03*
%TO.P,J16,4,Pin_4*%
%TO.N,12VOUT*%
X71960000Y-107000000D03*
%TO.P,J16,5,Pin_5*%
X74500000Y-107000000D03*
%TD*%
D16*
%TO.P,RV1,1*%
%TO.N,Net-(J22-Pin_1)*%
X35000000Y-97250000D03*
%TO.P,RV1,2*%
%TO.N,Net-(J22-Pin_2)*%
X40000000Y-99250000D03*
%TD*%
D24*
%TO.P,D8,1,K*%
%TO.N,Net-(D7-A)*%
X78460000Y-107000000D03*
D25*
%TO.P,D8,2,A*%
%TO.N,Net-(D8-A)*%
X81000000Y-107000000D03*
%TD*%
D19*
%TO.P,D14,1,K*%
%TO.N,D1*%
X84950000Y-103750000D03*
%TO.P,D14,2,A*%
%TO.N,Net-(D14-A)*%
X87050000Y-103750000D03*
%TD*%
D41*
%TO.N,*%
X23500000Y-121000000D03*
X115000000Y-121000000D03*
X115000000Y-30000000D03*
X23500000Y-29750000D03*
%TO.N,Net-(U3-EN)*%
X116574800Y-76852700D03*
X115723800Y-57943200D03*
X106969000Y-55026100D03*
X95792800Y-80318400D03*
%TO.N,Net-(U3-~{RST})*%
X108827800Y-47673800D03*
X99319900Y-80319600D03*
%TO.N,Net-(Q5-B)*%
X104903500Y-58567700D03*
X99006300Y-70400000D03*
%TO.N,Net-(Q4-B)*%
X84957600Y-49450000D03*
X70074000Y-83600000D03*
X68671100Y-92685100D03*
X75002300Y-104005900D03*
%TO.N,Net-(Q3-B)*%
X76831900Y-88940300D03*
X69258100Y-67855700D03*
X54158100Y-63475600D03*
X105384500Y-50086200D03*
X117437900Y-50086200D03*
X117546300Y-99626900D03*
%TO.N,Net-(Q2-B)*%
X88160400Y-66168300D03*
X94714300Y-55862600D03*
%TO.N,Net-(Q1-B)*%
X39205600Y-91902800D03*
X110804000Y-102077200D03*
%TO.N,SDA*%
X115711700Y-68288400D03*
%TO.N,SDA{slash}RX*%
X95341800Y-89526300D03*
%TO.N,SCL{slash}TX*%
X89571900Y-83572200D03*
%TO.N,+5V*%
X80616100Y-37416000D03*
X112795300Y-52064900D03*
X104265700Y-116759200D03*
%TO.N,Net-(D17-A)*%
X60727500Y-113475300D03*
X22430000Y-56781700D03*
X65361700Y-56887100D03*
X96469800Y-68325500D03*
%TO.N,GPIO2*%
X85544400Y-60550100D03*
X84984300Y-98984600D03*
%TO.N,GPIO0*%
X104111300Y-97007500D03*
X92374000Y-100542900D03*
X92487800Y-90146600D03*
X78254700Y-63142400D03*
X82601900Y-119882800D03*
X83045500Y-123502100D03*
%TO.N,D1*%
X72647400Y-38894900D03*
X80012800Y-102542300D03*
%TO.N,D0*%
X99473200Y-100114600D03*
%TO.N,Net-(D7-A)*%
X77314700Y-93276000D03*
%TO.N,Net-(D7-K)*%
X50948100Y-95825100D03*
%TO.N,Net-(D5-A)*%
X92252900Y-64364800D03*
X96441700Y-57580100D03*
X86268400Y-43247300D03*
X53587300Y-98694900D03*
%TO.N,+12V*%
X115309800Y-26505000D03*
%TO.N,+3.3V*%
X87970300Y-38393400D03*
X81679000Y-77650000D03*
%TO.N,GND*%
X82555700Y-68406100D03*
X58648900Y-100631800D03*
X83818000Y-94901900D03*
X99357000Y-83284800D03*
%TD*%
D42*
%TO.N,Net-(D3-A)*%
X79835200Y-35790000D02*
X78500000Y-35790000D01*
X82625200Y-33000000D02*
X79835200Y-35790000D01*
X82920000Y-33000000D02*
X82625200Y-33000000D01*
%TO.N,Net-(J22-Pin_2)*%
X41250000Y-99250000D02*
X43250000Y-97250000D01*
X40000000Y-99250000D02*
X41250000Y-99250000D01*
%TO.N,BTN*%
X58500000Y-118750000D02*
X58250000Y-119000000D01*
X58500000Y-107650000D02*
X58500000Y-118750000D01*
X59000000Y-107650000D02*
X58500000Y-107650000D01*
X59725600Y-106924400D02*
X59000000Y-107650000D01*
X59725600Y-106922100D02*
X59725600Y-106924400D01*
X62641000Y-104006700D02*
X59725600Y-106922100D01*
X62643300Y-104006700D02*
X62641000Y-104006700D01*
X63150000Y-103500000D02*
X62643300Y-104006700D01*
%TO.N,GPIO16*%
X99155100Y-75629200D02*
X101284300Y-73500000D01*
X94729700Y-75629200D02*
X99155100Y-75629200D01*
X93500000Y-76858900D02*
X94729700Y-75629200D01*
X93500000Y-77650000D02*
X93500000Y-76858900D01*
%TO.N,GPIO15*%
X87500000Y-95983300D02*
X87500000Y-92850000D01*
X88416700Y-96900000D02*
X87500000Y-95983300D01*
X84597700Y-96900000D02*
X88416700Y-96900000D01*
X81708300Y-99789400D02*
X84597700Y-96900000D01*
X81708300Y-100000000D02*
X81708300Y-99789400D01*
%TO.N,GPIO14*%
X91500000Y-77650000D02*
X91500000Y-75698100D01*
X92769200Y-75698100D02*
X91500000Y-75698100D01*
X94967300Y-73500000D02*
X92769200Y-75698100D01*
X96545700Y-73500000D02*
X94967300Y-73500000D01*
X97902000Y-72143700D02*
X96545700Y-73500000D01*
X109405100Y-72143700D02*
X97902000Y-72143700D01*
X110761400Y-73500000D02*
X109405100Y-72143700D01*
%TO.N,GPIO5*%
X113151900Y-94801900D02*
X115250000Y-96900000D01*
X95500000Y-94801900D02*
X113151900Y-94801900D01*
X95500000Y-92850000D02*
X95500000Y-94801900D01*
%TO.N,GPIO12*%
X89500000Y-77650000D02*
X89500000Y-75698100D01*
X89609000Y-75698100D02*
X91807100Y-73500000D01*
X89500000Y-75698100D02*
X89609000Y-75698100D01*
%TO.N,GPIO13*%
X87500000Y-73931400D02*
X87068600Y-73500000D01*
X87500000Y-77650000D02*
X87500000Y-73931400D01*
X84326700Y-70758100D02*
X87068600Y-73500000D01*
X84326700Y-66326700D02*
X84326700Y-70758100D01*
X83250000Y-65250000D02*
X84326700Y-66326700D01*
%TO.N,Net-(U3-EN)*%
X109375600Y-76852700D02*
X116574800Y-76852700D01*
X106022900Y-73500000D02*
X109375600Y-76852700D01*
X112806700Y-55026100D02*
X106969000Y-55026100D01*
X115723800Y-57943200D02*
X112806700Y-55026100D01*
X95500000Y-80025600D02*
X95792800Y-80318400D01*
X95500000Y-77650000D02*
X95500000Y-80025600D01*
%TO.N,Net-(U3-~{RST})*%
X84375000Y-28250000D02*
X84375000Y-29451900D01*
X99500000Y-77650000D02*
X99500000Y-79601900D01*
X84507300Y-29451900D02*
X84375000Y-29451900D01*
X86750000Y-31694600D02*
X84507300Y-29451900D01*
X86750000Y-33200000D02*
X86750000Y-31694600D01*
X99319900Y-79782000D02*
X99319900Y-80319600D01*
X99500000Y-79601900D02*
X99319900Y-79782000D01*
X94354000Y-33200000D02*
X108827800Y-47673800D01*
X86750000Y-33200000D02*
X94354000Y-33200000D01*
%TO.N,Net-(Q5-C)*%
X79800000Y-44250000D02*
X79300000Y-43750000D01*
X81750000Y-44250000D02*
X79800000Y-44250000D01*
%TO.N,Net-(Q5-B)*%
X101284300Y-70400000D02*
X99006300Y-70400000D01*
X108398000Y-58567700D02*
X104903500Y-58567700D01*
X117413600Y-67583300D02*
X108398000Y-58567700D01*
X117413600Y-71586400D02*
X117413600Y-67583300D01*
X115500000Y-73500000D02*
X117413600Y-71586400D01*
X87860300Y-49435300D02*
X83625000Y-45200000D01*
X87860300Y-52906900D02*
X87860300Y-49435300D01*
X94271400Y-59318000D02*
X87860300Y-52906900D01*
X104153200Y-59318000D02*
X94271400Y-59318000D01*
X104903500Y-58567700D02*
X104153200Y-59318000D01*
%TO.N,Net-(Q4-C)*%
X77650000Y-49600000D02*
X76000000Y-49600000D01*
X78750000Y-48500000D02*
X77650000Y-49600000D01*
%TO.N,Net-(Q4-B)*%
X86000000Y-102416700D02*
X88416700Y-100000000D01*
X86000000Y-104272300D02*
X86000000Y-102416700D01*
X81668200Y-108604100D02*
X86000000Y-104272300D01*
X77258700Y-108604100D02*
X81668200Y-108604100D01*
X76455000Y-107800400D02*
X77258700Y-108604100D01*
X76455000Y-105458600D02*
X76455000Y-107800400D01*
X75002300Y-104005900D02*
X76455000Y-105458600D01*
X68048100Y-92062100D02*
X68671100Y-92685100D01*
X68048100Y-85625900D02*
X68048100Y-92062100D01*
X70074000Y-83600000D02*
X68048100Y-85625900D01*
X80625000Y-49450000D02*
X84957600Y-49450000D01*
%TO.N,Net-(Q3-B)*%
X115623100Y-99626900D02*
X115250000Y-100000000D01*
X117546300Y-99626900D02*
X115623100Y-99626900D01*
X117437900Y-50086200D02*
X105384500Y-50086200D01*
X64878000Y-63475600D02*
X54158100Y-63475600D01*
X69258100Y-67855700D02*
X64878000Y-63475600D01*
X75900000Y-90962500D02*
X75900000Y-89450000D01*
X75900000Y-89450000D02*
X74450000Y-88000000D01*
X76322200Y-89450000D02*
X76831900Y-88940300D01*
X75900000Y-89450000D02*
X76322200Y-89450000D01*
%TO.N,Net-(Q2-B)*%
X98511700Y-107550000D02*
X98562500Y-107550000D01*
X97110800Y-108950900D02*
X98511700Y-107550000D01*
X97110800Y-112460800D02*
X97110800Y-108950900D01*
X98150000Y-113500000D02*
X97110800Y-112460800D01*
X91807100Y-69815000D02*
X88160400Y-66168300D01*
X91807100Y-70400000D02*
X91807100Y-69815000D01*
X107662500Y-98450000D02*
X98562500Y-107550000D01*
X116126500Y-98450000D02*
X107662500Y-98450000D01*
X118415500Y-96161000D02*
X116126500Y-98450000D01*
X118415500Y-67168200D02*
X118415500Y-96161000D01*
X107975300Y-56728000D02*
X118415500Y-67168200D01*
X106264000Y-56728000D02*
X107975300Y-56728000D01*
X105398600Y-55862600D02*
X106264000Y-56728000D01*
X94714300Y-55862600D02*
X105398600Y-55862600D01*
%TO.N,Net-(Q1-B)*%
X31200000Y-92062500D02*
X31200000Y-91902800D01*
X31200000Y-89700000D02*
X30500000Y-89000000D01*
X31200000Y-91902800D02*
X31200000Y-89700000D01*
X31200000Y-91902800D02*
X39205600Y-91902800D01*
X110618900Y-102077200D02*
X110804000Y-102077200D01*
X108541700Y-100000000D02*
X110618900Y-102077200D01*
%TO.N,RST*%
X108136800Y-120193200D02*
X106580000Y-121750000D01*
X108136800Y-116199300D02*
X108136800Y-120193200D01*
X100437500Y-108500000D02*
X108136800Y-116199300D01*
%TO.N,Net-(J14-Pin_2)*%
X65463500Y-99150000D02*
X70700000Y-99150000D01*
X63463500Y-97150000D02*
X65463500Y-99150000D01*
X57450000Y-97150000D02*
X63463500Y-97150000D01*
%TO.N,SDA*%
X108971400Y-61548100D02*
X115711700Y-68288400D01*
X100651900Y-61548100D02*
X108971400Y-61548100D01*
X99100000Y-63100000D02*
X100651900Y-61548100D01*
%TO.N,SDA{slash}RX*%
X96713600Y-90898100D02*
X97500000Y-90898100D01*
X95341800Y-89526300D02*
X96713600Y-90898100D01*
X97500000Y-92850000D02*
X97500000Y-90898100D01*
%TO.N,SCL*%
X84433800Y-112236200D02*
X87170000Y-109500000D01*
X84433800Y-122417000D02*
X84433800Y-112236200D01*
X85399200Y-123382400D02*
X84433800Y-122417000D01*
X102407600Y-123382400D02*
X85399200Y-123382400D01*
X104040000Y-121750000D02*
X102407600Y-123382400D01*
%TO.N,SCL{slash}TX*%
X99500000Y-92850000D02*
X99500000Y-90898100D01*
X92174100Y-83572200D02*
X99500000Y-90898100D01*
X89571900Y-83572200D02*
X92174100Y-83572200D01*
%TO.N,TXP*%
X86500000Y-119250000D02*
X86500000Y-117698100D01*
X90273800Y-111476200D02*
X92250000Y-109500000D01*
X87297100Y-111476200D02*
X90273800Y-111476200D01*
X85447800Y-113325500D02*
X87297100Y-111476200D01*
X85447800Y-116645900D02*
X85447800Y-113325500D01*
X86500000Y-117698100D02*
X85447800Y-116645900D01*
%TO.N,+5V*%
X77300000Y-71650000D02*
X77300000Y-73351900D01*
X52500000Y-76445000D02*
X54051900Y-76445000D01*
X68000000Y-53750000D02*
X69551900Y-53750000D01*
X76130000Y-52960000D02*
X74578100Y-52960000D01*
X73788100Y-53750000D02*
X74578100Y-52960000D01*
X69551900Y-53750000D02*
X73788100Y-53750000D01*
X81604000Y-37416000D02*
X80616100Y-37416000D01*
X82920000Y-36100000D02*
X81604000Y-37416000D01*
X58209100Y-72287800D02*
X54051900Y-76445000D01*
X66675000Y-72287800D02*
X58209100Y-72287800D01*
X67739100Y-73351900D02*
X66675000Y-72287800D01*
X77300000Y-73351900D02*
X67739100Y-73351900D01*
X104040000Y-116984900D02*
X104265700Y-116759200D01*
X104040000Y-119210000D02*
X104040000Y-116984900D01*
X98884900Y-52064900D02*
X112795300Y-52064900D01*
X82920000Y-36100000D02*
X98884900Y-52064900D01*
%TO.N,12VOUT*%
X38090000Y-107000000D02*
X40630000Y-107000000D01*
X74500000Y-107000000D02*
X71960000Y-107000000D01*
X40630000Y-107000000D02*
X40630000Y-108551900D01*
X71960000Y-107000000D02*
X71960000Y-108551900D01*
X40710400Y-108551900D02*
X40630000Y-108551900D01*
X50750000Y-118591500D02*
X40710400Y-108551900D01*
X50750000Y-119398100D02*
X50750000Y-118591500D01*
X52354000Y-121002100D02*
X50750000Y-119398100D01*
X59509800Y-121002100D02*
X52354000Y-121002100D01*
X71960000Y-108551900D02*
X59509800Y-121002100D01*
%TO.N,Net-(D17-A)*%
X60727500Y-107851200D02*
X60727500Y-113475300D01*
X65078700Y-103500000D02*
X60727500Y-107851200D01*
X65250000Y-103500000D02*
X65078700Y-103500000D01*
X65256300Y-56781700D02*
X65361700Y-56887100D01*
X22430000Y-56781700D02*
X65256300Y-56781700D01*
X96545700Y-68401400D02*
X96469800Y-68325500D01*
X96545700Y-70400000D02*
X96545700Y-68401400D01*
%TO.N,GPIO2*%
X80949900Y-60550100D02*
X85544400Y-60550100D01*
X80000000Y-61500000D02*
X80949900Y-60550100D01*
X89500000Y-92850000D02*
X89500000Y-94801900D01*
X95125000Y-96900000D02*
X91598100Y-96900000D01*
X91598100Y-96900000D02*
X89500000Y-94801900D01*
X91598100Y-96900000D02*
X89671200Y-98826900D01*
X89468400Y-98624200D02*
X89671200Y-98826900D01*
X85344700Y-98624200D02*
X89468400Y-98624200D01*
X84984300Y-98984600D02*
X85344700Y-98624200D01*
X90300000Y-99455800D02*
X90300000Y-102600000D01*
X89671200Y-98826900D02*
X90300000Y-99455800D01*
%TO.N,D1-RFW26*%
X80000000Y-58381900D02*
X78670000Y-57051900D01*
X80000000Y-59400000D02*
X80000000Y-58381900D01*
X78670000Y-55500000D02*
X78670000Y-57051900D01*
%TO.N,GPIO0*%
X92374000Y-101724000D02*
X92374000Y-100542900D01*
X93300000Y-102650000D02*
X92374000Y-101724000D01*
X91500000Y-92850000D02*
X91500000Y-90898100D01*
X91736300Y-90898100D02*
X92487800Y-90146600D01*
X91500000Y-90898100D02*
X91736300Y-90898100D01*
X80443100Y-63142400D02*
X78254700Y-63142400D01*
X81985500Y-61600000D02*
X80443100Y-63142400D01*
X82500000Y-61600000D02*
X81985500Y-61600000D01*
X82601900Y-123058500D02*
X83045500Y-123502100D01*
X82601900Y-119882800D02*
X82601900Y-123058500D01*
X101940800Y-97007500D02*
X104111300Y-97007500D01*
X101833300Y-96900000D02*
X101940800Y-97007500D01*
%TO.N,D0-RFW26*%
X81210000Y-58210000D02*
X82500000Y-59500000D01*
X81210000Y-55500000D02*
X81210000Y-58210000D01*
%TO.N,Net-(D14-A)*%
X87302900Y-104002900D02*
X87050000Y-103750000D01*
X94319500Y-104002900D02*
X87302900Y-104002900D01*
X94877900Y-103444500D02*
X94319500Y-104002900D01*
X94877900Y-100247100D02*
X94877900Y-103444500D01*
X95125000Y-100000000D02*
X94877900Y-100247100D01*
%TO.N,Net-(D13-A)*%
X95950000Y-103789400D02*
X95950000Y-103750000D01*
X93989400Y-105750000D02*
X95950000Y-103789400D01*
X93300000Y-105750000D02*
X93989400Y-105750000D01*
%TO.N,BEEP*%
X71400000Y-31250000D02*
X71400000Y-33251900D01*
X76200000Y-43750000D02*
X76200000Y-40000000D01*
X76850000Y-40000000D02*
X76200000Y-40000000D01*
X76200000Y-38051900D02*
X71400000Y-33251900D01*
X76200000Y-40000000D02*
X76200000Y-38051900D01*
%TO.N,LED*%
X73300000Y-46500000D02*
X71550000Y-44750000D01*
X76000000Y-46500000D02*
X73300000Y-46500000D01*
X72263000Y-37193000D02*
X66320000Y-31250000D01*
X73352500Y-37193000D02*
X72263000Y-37193000D01*
X74349300Y-38189800D02*
X73352500Y-37193000D01*
X74349300Y-39600000D02*
X74349300Y-38189800D01*
X73359300Y-40590000D02*
X74349300Y-39600000D01*
X73359300Y-42940700D02*
X73359300Y-40590000D01*
X71550000Y-44750000D02*
X73359300Y-42940700D01*
%TO.N,D1*%
X66000000Y-36010000D02*
X66000000Y-39018600D01*
X61240000Y-31250000D02*
X66000000Y-36010000D01*
X66000000Y-39018600D02*
X66000000Y-44750000D01*
X71781100Y-38894900D02*
X72647400Y-38894900D01*
X71657400Y-39018600D02*
X71781100Y-38894900D01*
X66000000Y-39018600D02*
X71657400Y-39018600D01*
X81220500Y-103750000D02*
X84950000Y-103750000D01*
X80012800Y-102542300D02*
X81220500Y-103750000D01*
%TO.N,D0*%
X60450000Y-35540000D02*
X60450000Y-44750000D01*
X56160000Y-31250000D02*
X60450000Y-35540000D01*
X99473200Y-102326800D02*
X99473200Y-100114600D01*
X98050000Y-103750000D02*
X99473200Y-102326800D01*
%TO.N,Net-(D8-A)*%
X81000000Y-106000000D02*
X75000000Y-100000000D01*
X81000000Y-107000000D02*
X81000000Y-106000000D01*
%TO.N,Net-(D7-A)*%
X73122200Y-74572200D02*
X74450000Y-75900000D01*
X66835200Y-74572200D02*
X73122200Y-74572200D01*
X65552700Y-73289700D02*
X66835200Y-74572200D01*
X62360300Y-73289700D02*
X65552700Y-73289700D01*
X58200000Y-77450000D02*
X62360300Y-73289700D01*
X76876200Y-92837500D02*
X77314700Y-93276000D01*
X74950000Y-92837500D02*
X76876200Y-92837500D01*
%TO.N,Net-(D7-K)*%
X52500000Y-89750000D02*
X54051900Y-89750000D01*
X73735900Y-95635900D02*
X75000000Y-96900000D01*
X51137300Y-95635900D02*
X73735900Y-95635900D01*
X50948100Y-95825100D02*
X51137300Y-95635900D01*
X73893300Y-80843300D02*
X70200000Y-80843300D01*
X74450000Y-81400000D02*
X73893300Y-80843300D01*
X70200000Y-77450000D02*
X70200000Y-80843300D01*
X56203800Y-91901900D02*
X54051900Y-89750000D01*
X59141400Y-91901900D02*
X56203800Y-91901900D01*
X70200000Y-80843300D02*
X59141400Y-91901900D01*
%TO.N,Net-(D5-A)*%
X93385000Y-65496900D02*
X92252900Y-64364800D01*
X93385000Y-71249600D02*
X93385000Y-65496900D01*
X92881700Y-71752900D02*
X93385000Y-71249600D01*
X88421500Y-71752900D02*
X92881700Y-71752900D01*
X87068600Y-70400000D02*
X88421500Y-71752900D01*
X67558500Y-101008500D02*
X70050000Y-103500000D01*
X61767200Y-101008500D02*
X67558500Y-101008500D01*
X59453600Y-98694900D02*
X61767200Y-101008500D01*
X53587300Y-98694900D02*
X59453600Y-98694900D01*
X88862200Y-45841100D02*
X86268400Y-43247300D01*
X88862200Y-52491800D02*
X88862200Y-45841100D01*
X93950500Y-57580100D02*
X88862200Y-52491800D01*
X96441700Y-57580100D02*
X93950500Y-57580100D01*
%TO.N,Net-(D5-K)*%
X53000000Y-118750000D02*
X53250000Y-119000000D01*
X53000000Y-107650000D02*
X53000000Y-118750000D01*
X66932000Y-102482000D02*
X67950000Y-103500000D01*
X62676300Y-102482000D02*
X66932000Y-102482000D01*
X59658400Y-105499900D02*
X62676300Y-102482000D01*
X55150100Y-105499900D02*
X59658400Y-105499900D01*
X53000000Y-107650000D02*
X55150100Y-105499900D01*
%TO.N,Net-(D4-A)*%
X31000000Y-106750000D02*
X31000000Y-100250000D01*
X31250000Y-107000000D02*
X31000000Y-106750000D01*
%TO.N,Net-(D2-A)*%
X31750000Y-77500000D02*
X30500000Y-76250000D01*
X35200000Y-77500000D02*
X31750000Y-77500000D01*
X33082200Y-96769700D02*
X30250000Y-93937500D01*
X33082200Y-104690300D02*
X33082200Y-96769700D01*
X33790000Y-105398100D02*
X33082200Y-104690300D01*
X33790000Y-107000000D02*
X33790000Y-105398100D01*
%TO.N,Net-(D2-K)*%
X48685000Y-78985000D02*
X52500000Y-78985000D01*
X47200000Y-77500000D02*
X48685000Y-78985000D01*
X42950000Y-81750000D02*
X30500000Y-81750000D01*
X47200000Y-77500000D02*
X42950000Y-81750000D01*
X27671300Y-93821300D02*
X31000000Y-97150000D01*
X27671300Y-84578700D02*
X27671300Y-93821300D01*
X30500000Y-81750000D02*
X27671300Y-84578700D01*
D43*
%TO.N,+12V*%
X31600000Y-41700000D02*
X26850000Y-36950000D01*
X31600000Y-47500000D02*
X31600000Y-41700000D01*
X35557300Y-33907700D02*
X37660000Y-31805000D01*
X30540600Y-33907700D02*
X35557300Y-33907700D01*
X27498300Y-36950000D02*
X30540600Y-33907700D01*
X26850000Y-36950000D02*
X27498300Y-36950000D01*
X34219200Y-26505000D02*
X115309800Y-26505000D01*
X30540600Y-30183600D02*
X34219200Y-26505000D01*
X30540600Y-33907700D02*
X30540600Y-30183600D01*
D42*
%TO.N,+3.3V*%
X75000000Y-65350000D02*
X72398100Y-65350000D01*
X84573100Y-75698100D02*
X82300000Y-73425000D01*
X85500000Y-75698100D02*
X84573100Y-75698100D01*
X85500000Y-77650000D02*
X85500000Y-75698100D01*
X97408100Y-120986200D02*
X97408100Y-121750000D01*
X95671900Y-119250000D02*
X97408100Y-120986200D01*
X98960000Y-121750000D02*
X97408100Y-121750000D01*
X94120000Y-119250000D02*
X95671900Y-119250000D01*
X101640000Y-63100000D02*
X101640000Y-64651900D01*
X72398100Y-65350000D02*
X75876400Y-68828200D01*
X75000000Y-69704600D02*
X75000000Y-71650000D01*
X75876400Y-68828200D02*
X75000000Y-69704600D01*
X80150000Y-68828200D02*
X75876400Y-68828200D01*
X80150000Y-71275000D02*
X82300000Y-73425000D01*
X80150000Y-68828200D02*
X80150000Y-71275000D01*
X94120000Y-119250000D02*
X94120000Y-117698100D01*
X76550000Y-61198100D02*
X76550000Y-60250000D01*
X72398100Y-65350000D02*
X76550000Y-61198100D01*
X80150000Y-65250000D02*
X80150000Y-68828200D01*
X110761400Y-70400000D02*
X106022900Y-70400000D01*
X94120000Y-107104900D02*
X94120000Y-117698100D01*
X91704900Y-107104900D02*
X94120000Y-107104900D01*
X90300000Y-105700000D02*
X91704900Y-107104900D01*
X101833300Y-101451900D02*
X101833300Y-100000000D01*
X96180300Y-107104900D02*
X101833300Y-101451900D01*
X94120000Y-107104900D02*
X96180300Y-107104900D01*
X106022900Y-69034800D02*
X101640000Y-64651900D01*
X106022900Y-70400000D02*
X106022900Y-69034800D01*
X85500000Y-77650000D02*
X81679000Y-77650000D01*
X94947000Y-64651900D02*
X101640000Y-64651900D01*
X92958000Y-62662900D02*
X94947000Y-64651900D01*
X82737100Y-62662900D02*
X92958000Y-62662900D01*
X80150000Y-65250000D02*
X82737100Y-62662900D01*
X87970300Y-37520300D02*
X87970300Y-38393400D01*
X86750000Y-36300000D02*
X87970300Y-37520300D01*
D43*
%TO.N,GND*%
X70551900Y-71650000D02*
X69651900Y-70750000D01*
X72700000Y-71650000D02*
X70551900Y-71650000D01*
X32660000Y-31805000D02*
X34761900Y-31805000D01*
X101500000Y-119210000D02*
X101250000Y-119210000D01*
X101250000Y-119210000D02*
X98960000Y-119210000D01*
X76625000Y-28250000D02*
X76625000Y-28900900D01*
X76625000Y-28900900D02*
X76625000Y-29551900D01*
X48934000Y-29104000D02*
X51080000Y-31250000D01*
X37331500Y-29104000D02*
X48934000Y-29104000D01*
X34761900Y-31673600D02*
X37331500Y-29104000D01*
X34761900Y-31805000D02*
X34761900Y-31673600D01*
X53429100Y-28900900D02*
X51080000Y-31250000D01*
X76625000Y-28900900D02*
X53429100Y-28900900D01*
X68000000Y-70750000D02*
X68826000Y-70750000D01*
X98562500Y-110812500D02*
X101250000Y-113500000D01*
X98562500Y-109450000D02*
X98562500Y-110812500D01*
X49901900Y-106448100D02*
X49901900Y-107000000D01*
X53000000Y-103350000D02*
X49901900Y-106448100D01*
X48250000Y-107000000D02*
X49901900Y-107000000D01*
X60150000Y-48750000D02*
X55250000Y-48750000D01*
X60450000Y-49050000D02*
X60150000Y-48750000D01*
X66000000Y-49050000D02*
X60450000Y-49050000D01*
X53000000Y-103350000D02*
X58500000Y-103350000D01*
X85500000Y-93875900D02*
X85500000Y-94901900D01*
X81150000Y-41456200D02*
X81150000Y-40000000D01*
X81781200Y-41456200D02*
X83625000Y-43300000D01*
X81150000Y-41456200D02*
X81781200Y-41456200D01*
X79021700Y-41456200D02*
X81150000Y-41456200D01*
X77803700Y-42674200D02*
X79021700Y-41456200D01*
X77803700Y-47367400D02*
X77803700Y-42674200D01*
X80442400Y-47367400D02*
X77803700Y-47367400D01*
X80625000Y-47550000D02*
X80442400Y-47367400D01*
X72550000Y-48050000D02*
X71550000Y-49050000D01*
X77025300Y-48050000D02*
X72550000Y-48050000D01*
X77707900Y-47367400D02*
X77025300Y-48050000D01*
X77803700Y-47367400D02*
X77707900Y-47367400D01*
X81708300Y-96900000D02*
X81708300Y-96037200D01*
X80303100Y-40000000D02*
X81150000Y-40000000D01*
X76786000Y-36482900D02*
X80303100Y-40000000D01*
X76786000Y-34964000D02*
X76786000Y-36482900D01*
X78500000Y-33250000D02*
X76786000Y-34964000D01*
X104180000Y-63100000D02*
X105831900Y-63100000D01*
X101250000Y-119210000D02*
X101250000Y-113500000D01*
X85500000Y-93362900D02*
X85500000Y-93875900D01*
X58500000Y-103350000D02*
X58500000Y-100631800D01*
X78500000Y-32188800D02*
X78500000Y-33250000D01*
X78190700Y-32188800D02*
X78500000Y-32188800D01*
X77135200Y-31133300D02*
X78190700Y-32188800D01*
X77135200Y-30062100D02*
X77135200Y-31133300D01*
X76625000Y-29551900D02*
X77135200Y-30062100D01*
X72424000Y-60776000D02*
X72950000Y-60250000D01*
X71111700Y-60776000D02*
X72424000Y-60776000D01*
X82555700Y-70219300D02*
X82555700Y-68406100D01*
X82300000Y-70475000D02*
X82555700Y-70219300D01*
X71550000Y-49050000D02*
X66000000Y-49050000D01*
X73385700Y-91576800D02*
X74000000Y-90962500D01*
X73385700Y-93416000D02*
X73385700Y-91576800D01*
X81114300Y-95443200D02*
X81708300Y-96037200D01*
X75412900Y-95443200D02*
X81114300Y-95443200D01*
X73385700Y-93416000D02*
X75412900Y-95443200D01*
X30500000Y-86755200D02*
X30500000Y-85900000D01*
X40925100Y-86755200D02*
X30500000Y-86755200D01*
X48146100Y-93976200D02*
X40925100Y-86755200D01*
X49136400Y-93976200D02*
X48146100Y-93976200D01*
X28789500Y-91552000D02*
X29300000Y-92062500D01*
X28789500Y-88145000D02*
X28789500Y-91552000D01*
X30179300Y-86755200D02*
X28789500Y-88145000D01*
X30500000Y-86755200D02*
X30179300Y-86755200D01*
X52975900Y-100631800D02*
X58500000Y-100631800D01*
X49136400Y-96792300D02*
X52975900Y-100631800D01*
X49136400Y-93976200D02*
X49136400Y-96792300D01*
X58500000Y-100631800D02*
X58648900Y-100631800D01*
X72314700Y-94487000D02*
X73385700Y-93416000D01*
X67924700Y-94487000D02*
X72314700Y-94487000D01*
X67413900Y-93976200D02*
X67924700Y-94487000D01*
X49136400Y-93976200D02*
X67413900Y-93976200D01*
X76057200Y-84900000D02*
X74450000Y-84900000D01*
X85033100Y-93875900D02*
X76057200Y-84900000D01*
X85500000Y-93875900D02*
X85033100Y-93875900D01*
X68912200Y-70750000D02*
X69651900Y-70750000D01*
X68826000Y-70750000D02*
X68912200Y-70750000D01*
X71111700Y-68550500D02*
X71111700Y-60776000D01*
X68912200Y-70750000D02*
X71111700Y-68550500D01*
X113560400Y-70400000D02*
X115500000Y-70400000D01*
X106260400Y-63100000D02*
X113560400Y-70400000D01*
X105831900Y-63100000D02*
X106260400Y-63100000D01*
X85500000Y-93362900D02*
X85500000Y-92850000D01*
X85500000Y-94901900D02*
X83818000Y-94901900D01*
X82843600Y-94901900D02*
X81708300Y-96037200D01*
X83818000Y-94901900D02*
X82843600Y-94901900D01*
X95080300Y-83284800D02*
X99357000Y-83284800D01*
X93540300Y-81744800D02*
X95080300Y-83284800D01*
X88801300Y-81744800D02*
X93540300Y-81744800D01*
X85756400Y-84789700D02*
X88801300Y-81744800D01*
X85756400Y-92593600D02*
X85756400Y-84789700D01*
X85500000Y-92850000D02*
X85756400Y-92593600D01*
X66000000Y-55085200D02*
X66000000Y-49050000D01*
X66108200Y-55085200D02*
X66000000Y-55085200D01*
X67163600Y-56140600D02*
X66108200Y-55085200D01*
X67163600Y-56827900D02*
X67163600Y-56140600D01*
X71111700Y-60776000D02*
X67163600Y-56827900D01*
D42*
%TO.N,12V*%
X40750000Y-47150000D02*
X40400000Y-47500000D01*
X45450000Y-47150000D02*
X40750000Y-47150000D01*
X46800000Y-45800000D02*
X55250000Y-45800000D01*
X45450000Y-47150000D02*
X46800000Y-45800000D01*
X34150000Y-53750000D02*
X40400000Y-47500000D01*
X29000000Y-53750000D02*
X34150000Y-53750000D01*
%TD*%
M02*
