<?xml version="1.0" standalone="no"?>
<!DOCTYPE svg PUBLIC "-//W3C//DTD SVG 20010904//EN"
 "http://www.w3.org/TR/2001/REC-SVG-20010904/DTD/svg10.dtd">
<svg version="1.0" xmlns="http://www.w3.org/2000/svg"
 width="981.000000pt" height="776.000000pt" viewBox="0 0 981.000000 776.000000"
 preserveAspectRatio="xMidYMid meet">
<metadata>
Created by potrace 1.16, written by Peter Selinger 2001-2019
</metadata>
<g transform="translate(0.000000,776.000000) scale(0.100000,-0.100000)"
fill="#000000" stroke="none">
<path d="M4630 7749 c-1471 -56 -2889 -606 -4026 -1560 -187 -157 -415 -369
-466 -433 -83 -104 -138 -259 -138 -391 0 -204 116 -418 283 -523 103 -65 167
-84 294 -90 101 -4 121 -2 196 21 110 35 180 82 320 215 840 797 1866 1301
2997 1471 280 42 470 55 810 55 416 0 695 -26 1070 -100 861 -170 1693 -560
2385 -1118 111 -90 343 -296 390 -346 76 -82 192 -154 300 -186 85 -25 239
-23 325 5 183 58 337 212 396 396 53 166 41 326 -37 485 -36 73 -58 101 -153
195 -274 270 -622 553 -966 782 -924 618 -1963 990 -3066 1098 -146 14 -615
37 -689 33 -16 -1 -118 -5 -225 -9z"/>
<path d="M4575 5684 c-16 -2 -86 -9 -155 -15 -342 -30 -762 -124 -1100 -246
-616 -221 -1148 -546 -1647 -1004 -210 -194 -264 -263 -310 -404 -22 -67 -27
-98 -27 -195 0 -103 3 -124 30 -200 38 -107 86 -181 169 -259 110 -103 247
-155 405 -154 179 0 288 55 484 241 596 569 1271 890 2076 988 199 25 599 25
800 1 423 -51 797 -163 1170 -348 357 -177 623 -369 941 -675 90 -86 133 -120
190 -148 359 -176 779 34 854 428 28 147 12 264 -55 404 -33 69 -58 101 -147
194 -341 350 -775 666 -1234 898 -492 249 -1021 408 -1589 476 -127 15 -773
29 -855 18z"/>
<path d="M4635 3623 c-368 -39 -758 -162 -1068 -335 -234 -131 -435 -284 -632
-483 -145 -147 -189 -207 -233 -323 -23 -60 -26 -82 -27 -202 0 -116 3 -145
23 -201 63 -181 206 -330 375 -389 78 -27 237 -38 320 -20 32 6 95 30 139 52
69 35 102 61 212 170 146 144 234 215 368 293 155 92 329 156 523 192 140 26
408 23 552 -5 351 -70 632 -230 903 -515 130 -138 268 -199 445 -199 82 0 114
4 178 26 184 62 321 199 389 389 19 53 23 83 22 202 0 126 -2 147 -26 207 -43
114 -88 176 -228 318 -424 430 -938 697 -1541 801 -101 17 -172 22 -389 24
-146 2 -283 1 -305 -2z"/>
<path d="M4775 1486 c-269 -53 -474 -236 -565 -506 -34 -100 -39 -298 -11
-410 35 -142 91 -241 196 -345 99 -98 167 -144 272 -180 281 -97 595 -10 782
217 66 81 126 197 152 295 30 112 30 280 0 388 -44 157 -127 289 -244 387 -65
54 -210 128 -289 147 -78 19 -216 22 -293 7z"/>
</g>
</svg>
