<?xml version="1.0" encoding="UTF-8" standalone="no"?>
<svg
   xmlns:dc="http://purl.org/dc/elements/1.1/"
   xmlns:cc="http://creativecommons.org/ns#"
   xmlns:rdf="http://www.w3.org/1999/02/22-rdf-syntax-ns#"
   xmlns:svg="http://www.w3.org/2000/svg"
   xmlns="http://www.w3.org/2000/svg"
   xmlns:sodipodi="http://sodipodi.sourceforge.net/DTD/sodipodi-0.dtd"
   xmlns:inkscape="http://www.inkscape.org/namespaces/inkscape"
   version="1.0"
   width="512.000000pt"
   height="512.000000pt"
   viewBox="0 0 512.000000 512.000000"
   preserveAspectRatio="xMidYMid meet"
   id="svg16"
   sodipodi:docname="antenna-with-signal-transmission_icon-icons.com_56571.svg"
   inkscape:version="0.92.5 (2060ec1f9f, 2020-04-08)">
  <defs
     id="defs20" />
  <sodipodi:namedview
     pagecolor="#ffffff"
     bordercolor="#666666"
     borderopacity="1"
     objecttolerance="10"
     gridtolerance="10"
     guidetolerance="10"
     inkscape:pageopacity="0"
     inkscape:pageshadow="2"
     inkscape:window-width="1920"
     inkscape:window-height="972"
     id="namedview18"
     showgrid="true"
     inkscape:zoom="0.48889805"
     inkscape:cx="72.993863"
     inkscape:cy="-3.8213855"
     inkscape:window-x="0"
     inkscape:window-y="27"
     inkscape:window-maximized="1"
     inkscape:current-layer="svg16">
    <inkscape:grid
       type="xygrid"
       id="grid35" />
  </sodipodi:namedview>
  <metadata
     id="metadata2">
Created by potrace 1.16, written by Peter Selinger 2001-2019
<rdf:RDF>
  <cc:Work
     rdf:about="">
    <dc:format>image/svg+xml</dc:format>
    <dc:type
       rdf:resource="http://purl.org/dc/dcmitype/StillImage" />
  </cc:Work>
</rdf:RDF>
</metadata>
  <path
     style="fill:#000000;stroke:none;stroke-width:0.10279732"
     inkscape:connector-curvature="0"
     id="path4"
     d="M 99.819545,23.879156 C 65.176842,60.680559 42.458631,107.04218 33.309669,160.08556 c -2.775527,15.83075 -3.803501,52.32389 -1.953149,70.00499 5.653853,56.2302 30.530808,111.4323 68.051836,151.00928 l 8.326584,8.8406 17.37275,-17.26996 c 9.45734,-9.45735 17.26996,-17.68121 17.26996,-18.09233 0,-0.51434 -4.42029,-5.96228 -9.76576,-12.23292 -18.70911,-21.69016 -31.86717,-44.81965 -41.016133,-71.95808 -8.120987,-23.84899 -10.896516,-41.11896 -10.896516,-67.84627 0,-34.64269 6.784622,-63.63158 22.204229,-94.88195 9.04616,-18.195083 18.09233,-31.250367 35.56788,-51.193043 l 4.31749,-4.934292 -17.37276,-17.37272 c -9.66294,-9.662966 -17.78394,-17.475586 -18.09233,-17.475586 -0.41119,0 -3.7007,3.289567 -7.504205,7.195877 z" />
  <path
     style="fill:#000000;stroke:none;stroke-width:0.10316865"
     inkscape:connector-curvature="0"
     id="path6"
     d="m 405.60946,33.34152 c -15.99114,15.991204 -17.33234,17.641861 -15.99114,19.395726 0.72212,1.032088 3.92041,4.642571 7.11864,8.047206 27.23651,29.7125 46.3227,71.289448 52.10015,113.485418 2.16654,15.47528 1.6507,50.86221 -0.92854,64.48041 -7.73765,41.26743 -24.6573,76.03534 -52.10016,107.19219 -4.02357,4.53948 -7.32498,8.56302 -7.32498,9.07884 0,0.51547 7.84082,8.66623 17.4355,18.26088 l 17.4355,17.43545 6.08695,-6.60274 c 19.60204,-21.14959 32.39496,-39.41048 44.15618,-63.34557 14.75311,-29.71261 23.10977,-58.49657 26.41117,-91.09789 1.75387,-17.12605 0.61903,-54.16352 -2.06337,-69.84521 -8.04717,-46.32261 -25.79217,-86.661627 -53.54453,-121.429418 -6.91229,-8.666117 -19.60204,-22.490735 -20.73689,-22.490735 -0.30952,0 -8.45983,7.840789 -18.05451,17.435443 z" />
  <path
     style="fill:#000000;stroke:none;stroke-width:0.11025173"
     inkscape:connector-curvature="0"
     id="path8"
     d="m 157.47984,85.219276 c -16.60056,18.159384 -31.16622,46.079364 -38.02065,72.977854 -6.74732,26.4446 -6.85442,62.42284 -0.4284,88.86733 6.31893,25.42312 20.56329,53.34309 36.41415,71.27542 l 6.96153,7.83132 18.42128,-19.5214 18.52836,-19.52129 -3.42721,-4.31276 c -15.52957,-19.29434 -23.3479,-35.75129 -27.5248,-58.10997 -2.78462,-14.18704 -1.82072,-38.9291 2.03489,-52.88908 4.92663,-17.70539 11.56685,-30.53042 25.81121,-48.80328 l 2.57042,-3.51833 -18.42129,-19.521291 -18.52838,-19.521401 z" />
  <path
     style="fill:#000000;stroke:none;stroke-width:0.11052828"
     inkscape:connector-curvature="0"
     id="path10"
     d="m 348.46778,100.17531 -18.68253,19.7975 5.15381,6.14406 c 10.62969,12.62945 18.57514,28.21717 23.62158,45.96657 2.68427,9.32985 2.899,11.94679 3.00639,30.15134 0.1072,16.04286 -0.32206,21.50415 -1.93269,28.4448 -4.29484,17.86322 -12.45501,35.04377 -23.1921,48.35577 l -6.44225,7.96464 18.46779,19.56987 18.46779,19.68368 4.18745,-4.32359 c 15.89088,-16.15645 32.31862,-47.67334 38.97562,-74.41126 6.44225,-26.5104 6.33486,-63.60216 -0.42949,-89.08869 -7.30122,-27.64832 -19.32675,-51.08664 -36.3987,-70.884136 l -6.22753,-7.16805 z" />
  <path
     style="fill:#000000;stroke:none;stroke-width:0.12622674"
     d="m 246.26917,146.5854 c -20.82742,7.44734 -33.4501,20.32255 -40.39257,41.52859 -1.64095,5.17527 -2.01963,9.84566 -1.64095,19.56519 0.37874,11.61288 0.8836,13.75871 5.04908,22.46839 5.04906,10.60302 11.23418,18.30285 19.56514,23.98298 l 5.42775,3.7868 v 182.27151 62.65264 h 30.29442 30.29442 V 440.31511 258.04359 l 4.29172,-2.6507 c 7.19492,-4.54415 15.90456,-14.89479 20.70118,-25.11919 4.16548,-8.83581 4.67039,-10.85551 5.04907,-22.59452 0.37873,-9.71953 0,-14.38992 -1.64095,-19.56519 -3.7868,-11.48662 -8.20474,-18.93396 -15.65211,-26.38142 -7.57361,-7.44734 -13.75872,-11.23413 -25.24535,-15.14717 -9.08834,-3.15568 -27.26498,-3.15568 -36.10085,0 z"
     id="path12"
     inkscape:connector-curvature="0"
     sodipodi:nodetypes="ccccccccccccccccccc" />
</svg>
