<?xml version="1.0" encoding="UTF-8" standalone="no"?>
<svg
   xmlns:dc="http://purl.org/dc/elements/1.1/"
   xmlns:cc="http://creativecommons.org/ns#"
   xmlns:rdf="http://www.w3.org/1999/02/22-rdf-syntax-ns#"
   xmlns:svg="http://www.w3.org/2000/svg"
   xmlns="http://www.w3.org/2000/svg"
   xmlns:sodipodi="http://sodipodi.sourceforge.net/DTD/sodipodi-0.dtd"
   xmlns:inkscape="http://www.inkscape.org/namespaces/inkscape"
   version="1.0"
   width="512.000000pt"
   height="512.000000pt"
   viewBox="0 0 512.000000 512.000000"
   preserveAspectRatio="xMidYMid meet"
   id="svg10"
   sodipodi:docname="favpng_power-symbol-sign-logo.svg"
   inkscape:version="0.92.5 (2060ec1f9f, 2020-04-08)">
  <defs
     id="defs14" />
  <sodipodi:namedview
     pagecolor="#ffffff"
     bordercolor="#666666"
     borderopacity="1"
     objecttolerance="10"
     gridtolerance="10"
     guidetolerance="10"
     inkscape:pageopacity="0"
     inkscape:pageshadow="2"
     inkscape:window-width="1920"
     inkscape:window-height="972"
     id="namedview12"
     showgrid="false"
     inkscape:zoom="1.0785394"
     inkscape:cx="345.67232"
     inkscape:cy="311.46324"
     inkscape:window-x="0"
     inkscape:window-y="27"
     inkscape:window-maximized="1"
     inkscape:current-layer="g8" />
  <metadata
     id="metadata2">
Created by potrace 1.16, written by Peter Selinger 2001-2019
<rdf:RDF>
  <cc:Work
     rdf:about="">
    <dc:format>image/svg+xml</dc:format>
    <dc:type
       rdf:resource="http://purl.org/dc/dcmitype/StillImage" />
  </cc:Work>
</rdf:RDF>
</metadata>
  <g
     transform="translate(0.000000,512.000000) scale(0.100000,-0.100000)"
     fill="#000000"
     stroke="none"
     id="g8">
    <path
       d="m 2452,5109 c -88,-27 -220,-103 -267,-196 l -25,-48 -3,-1032 c -2,-1027 -2,-1032 19,-1087 58,-156 280,-256 446,-226 163,30 320,147 344,313 11,81 11,1893 0,1975 -18,120 -136,223 -243,277 -48,25 -70,30 -147,32 -50,1 -106,-2 -124,-8 z"
       id="path4"
       inkscape:connector-curvature="0"
       sodipodi:nodetypes="ccccccccccc" />
    <path
       d="M 1055,4182 C 971,4153 911,4112 829,4026 487,3671 272,3225 194,2710 172,2568 169,2230 189,2090 227,1813 300,1569 414,1335 770,610 1451,121 2254,15 c 153,-20 459,-20 612,0 803,106 1484,594 1840,1320 114,234 187,478 225,755 20,140 17,478 -5,620 -56,366 -180,698 -366,978 -162,243 -317,410 -435,468 -69,34 -87,39 -171,42 -145,7 -236,-25 -338,-118 -96,-89 -201,-244 -187,-370 14,-120 57,-205 158,-316 412,-448 517,-1055 278,-1605 -176,-405 -504,-677 -940,-790 -225,-59 -505,-59 -730,0 -376,98 -660,300 -864,639 -211,350 -259,821 -124,1217 68,199 173,373 326,539 69,77 122,159 139,221 70,248 -109,497 -351,571 -65,19 -204,17 -266,-4 z"
       id="path6"
       inkscape:connector-curvature="0"
       sodipodi:nodetypes="ccccccccccccccccccccccccc" />
  </g>
</svg>
