M48
; DRILL file {KiCad 7.0.8} date Thu Jul 25 17:36:04 2024
; FORMAT={-:-/ absolute / metric / decimal}
; #@! TF.CreationDate,2024-07-25T17:36:04-03:00
; #@! TF.GenerationSoftware,Kicad,Pcbnew,7.0.8
; #@! TF.FileFunction,Plated,1,2,PTH
FMAT,2
METRIC
; #@! TA.AperFunction,Plated,PTH,ComponentDrill
T1C0.650
; #@! TA.AperFunction,Plated,PTH,ComponentDrill
T2C0.750
; #@! TA.AperFunction,Plated,PTH,ComponentDrill
T3C0.800
; #@! TA.AperFunction,Plated,PTH,ComponentDrill
T4C0.900
; #@! TA.AperFunction,Plated,PTH,ComponentDrill
T5C1.000
; #@! TA.AperFunction,Plated,PTH,ComponentDrill
T6C1.300
%
G90
G05
T1
X134.75Y-58.0
X143.25Y-62.75
X147.5Y-71.5
X147.5Y-75.25
X156.5Y-78.75
X159.25Y-78.75
X163.75Y-78.75
X168.5Y-37.75
T2
X183.58Y-64.1
X183.58Y-66.33
X183.58Y-68.6
T3
X133.75Y-72.25
X134.75Y-61.44
X134.75Y-69.06
X136.25Y-72.25
X139.5Y-65.5
X139.5Y-73.12
X145.94Y-79.0
X151.25Y-64.83
X151.25Y-67.37
X153.56Y-79.0
X158.5Y-58.75
X158.5Y-61.25
X162.0Y-57.75
X162.0Y-62.83
X164.0Y-38.5
X164.0Y-41.04
X164.0Y-45.71
X164.0Y-48.25
X165.44Y-82.75
X165.75Y-67.44
X165.75Y-75.06
X167.38Y-56.0
X168.75Y-40.69
X168.75Y-48.31
X170.44Y-52.25
X171.88Y-66.25
X173.06Y-82.75
X173.116Y-75.0
X173.17Y-71.5
X175.0Y-56.0
X178.06Y-52.25
X178.196Y-75.0
X178.25Y-71.5
X179.5Y-66.25
X181.75Y-51.94
X181.75Y-59.56
X188.66Y-53.63
X188.66Y-58.71
X188.66Y-62.52
X188.66Y-65.06
X191.0Y-48.0
X191.0Y-50.5
X196.28Y-39.66
X196.28Y-42.16
X203.9Y-39.66
X203.9Y-42.16
T4
X193.74Y-65.06
X193.74Y-67.6
T5
X134.75Y-39.25
X134.75Y-41.79
X134.75Y-44.33
X134.75Y-75.88
X134.75Y-80.96
X134.75Y-83.5
X139.5Y-77.0
X151.17Y-72.21
X151.17Y-74.75
X153.71Y-72.21
X153.71Y-74.75
X156.25Y-72.21
X156.25Y-74.75
X158.79Y-72.21
X158.79Y-74.75
X189.5Y-39.75
X189.5Y-44.25
X193.74Y-54.9
X193.74Y-57.44
X193.74Y-59.98
X201.12Y-56.65
X201.12Y-68.65
T6
X134.75Y-47.75
X134.75Y-54.25
X159.25Y-39.0
X159.25Y-45.5
X173.75Y-44.25
X178.75Y-44.25
X183.75Y-44.25
X199.17Y-62.6
X201.34Y-79.75
X206.42Y-79.75
X208.98Y-44.74
X211.5Y-79.75
X213.32Y-68.65
X213.37Y-56.6
X213.98Y-44.74
X216.58Y-79.75
X221.66Y-79.75
X221.76Y-44.74
X224.25Y-57.52
X224.25Y-62.52
X224.25Y-67.52
X226.74Y-79.75
X226.76Y-44.74
T0
M30
