G04 #@! TF.GenerationSoftware,KiCad,Pcbnew,5.1.5+dfsg1-2build2*
G04 #@! TF.CreationDate,2021-12-20T12:08:05-03:00*
G04 #@! TF.ProjectId,prueba,70727565-6261-42e6-9b69-6361645f7063,rev?*
G04 #@! TF.SameCoordinates,Original*
G04 #@! TF.FileFunction,Legend,Top*
G04 #@! TF.FilePolarity,Positive*
%FSLAX46Y46*%
G04 Gerber Fmt 4.6, Leading zero omitted, Abs format (unit mm)*
G04 Created by KiCad (PCBNEW 5.1.5+dfsg1-2build2) date 2021-12-20 12:08:05*
%MOMM*%
%LPD*%
G04 APERTURE LIST*
%ADD10C,0.120000*%
%ADD11C,0.200000*%
%ADD12C,0.150000*%
G04 APERTURE END LIST*
D10*
X146133333Y-81985000D02*
X146133333Y-83255000D01*
X144780000Y-83185000D02*
X146133333Y-83185000D01*
X144780000Y-83065000D02*
X146133333Y-83065000D01*
X144780000Y-82945000D02*
X146133333Y-82945000D01*
X144780000Y-82825000D02*
X146133333Y-82825000D01*
X144780000Y-82705000D02*
X146133333Y-82705000D01*
X144780000Y-82585000D02*
X146133333Y-82585000D01*
X144780000Y-82465000D02*
X146133333Y-82465000D01*
X144780000Y-82345000D02*
X146133333Y-82345000D01*
X144780000Y-82225000D02*
X146133333Y-82225000D01*
X144780000Y-82105000D02*
X146133333Y-82105000D01*
X148840000Y-81985000D02*
X144780000Y-81985000D01*
X148840000Y-83255000D02*
X148840000Y-81985000D01*
X144780000Y-83255000D02*
X148840000Y-83255000D01*
X144780000Y-81985000D02*
X144780000Y-83255000D01*
X146133333Y-79445000D02*
X146133333Y-80715000D01*
X144780000Y-80645000D02*
X146133333Y-80645000D01*
X144780000Y-80525000D02*
X146133333Y-80525000D01*
X144780000Y-80405000D02*
X146133333Y-80405000D01*
X144780000Y-80285000D02*
X146133333Y-80285000D01*
X144780000Y-80165000D02*
X146133333Y-80165000D01*
X144780000Y-80045000D02*
X146133333Y-80045000D01*
X144780000Y-79925000D02*
X146133333Y-79925000D01*
X144780000Y-79805000D02*
X146133333Y-79805000D01*
X144780000Y-79685000D02*
X146133333Y-79685000D01*
X144780000Y-79565000D02*
X146133333Y-79565000D01*
X148840000Y-79445000D02*
X144780000Y-79445000D01*
X148840000Y-80715000D02*
X148840000Y-79445000D01*
X144780000Y-80715000D02*
X148840000Y-80715000D01*
X144780000Y-79445000D02*
X144780000Y-80715000D01*
X146133333Y-76905000D02*
X146133333Y-78175000D01*
X144780000Y-78105000D02*
X146133333Y-78105000D01*
X144780000Y-77985000D02*
X146133333Y-77985000D01*
X144780000Y-77865000D02*
X146133333Y-77865000D01*
X144780000Y-77745000D02*
X146133333Y-77745000D01*
X144780000Y-77625000D02*
X146133333Y-77625000D01*
X144780000Y-77505000D02*
X146133333Y-77505000D01*
X144780000Y-77385000D02*
X146133333Y-77385000D01*
X144780000Y-77265000D02*
X146133333Y-77265000D01*
X144780000Y-77145000D02*
X146133333Y-77145000D01*
X144780000Y-77025000D02*
X146133333Y-77025000D01*
X148840000Y-76905000D02*
X144780000Y-76905000D01*
X148840000Y-78175000D02*
X148840000Y-76905000D01*
X144780000Y-78175000D02*
X148840000Y-78175000D01*
X144780000Y-76905000D02*
X144780000Y-78175000D01*
X146133333Y-74365000D02*
X146133333Y-75635000D01*
X144780000Y-75565000D02*
X146133333Y-75565000D01*
X144780000Y-75445000D02*
X146133333Y-75445000D01*
X144780000Y-75325000D02*
X146133333Y-75325000D01*
X144780000Y-75205000D02*
X146133333Y-75205000D01*
X144780000Y-75085000D02*
X146133333Y-75085000D01*
X144780000Y-74965000D02*
X146133333Y-74965000D01*
X144780000Y-74845000D02*
X146133333Y-74845000D01*
X144780000Y-74725000D02*
X146133333Y-74725000D01*
X144780000Y-74605000D02*
X146133333Y-74605000D01*
X144780000Y-74485000D02*
X146133333Y-74485000D01*
X148840000Y-74365000D02*
X144780000Y-74365000D01*
X148840000Y-75635000D02*
X148840000Y-74365000D01*
X144780000Y-75635000D02*
X148840000Y-75635000D01*
X144780000Y-74365000D02*
X144780000Y-75635000D01*
X141620000Y-72340000D02*
X141620000Y-73723000D01*
X141620000Y-72340000D02*
X143004000Y-72340000D01*
X151760000Y-72580000D02*
X151760000Y-85040000D01*
X141860000Y-72580000D02*
X141860000Y-85040000D01*
X141860000Y-85040000D02*
X151760000Y-85040000D01*
X141860000Y-72580000D02*
X151760000Y-72580000D01*
D11*
X136500000Y-88600000D02*
X136500000Y-89200000D01*
X108580000Y-72800000D02*
X108580000Y-76270000D01*
X138230000Y-85730000D02*
X138230000Y-88600000D01*
X136500000Y-88600000D02*
X138230000Y-88600000D01*
X136500000Y-72800000D02*
X136500000Y-73400000D01*
X136500000Y-73400000D02*
X138230000Y-73400000D01*
X108580000Y-72800000D02*
X136500000Y-72800000D01*
X108580000Y-85730000D02*
X113825000Y-85730000D01*
X113825000Y-76270000D02*
X113825000Y-85730000D01*
X108580000Y-85730000D02*
X108580000Y-89200000D01*
X138230000Y-73400000D02*
X138230000Y-76270000D01*
X136500000Y-76270000D02*
X138230000Y-76270000D01*
X108580000Y-76270000D02*
X113825000Y-76270000D01*
X136500000Y-76270000D02*
X136500000Y-85730000D01*
X108580000Y-89200000D02*
X136500000Y-89200000D01*
X136500000Y-85730000D02*
X138230000Y-85730000D01*
D12*
X145476666Y-71984761D02*
X145619523Y-72032380D01*
X145857619Y-72032380D01*
X145952857Y-71984761D01*
X146000476Y-71937142D01*
X146048095Y-71841904D01*
X146048095Y-71746666D01*
X146000476Y-71651428D01*
X145952857Y-71603809D01*
X145857619Y-71556190D01*
X145667142Y-71508571D01*
X145571904Y-71460952D01*
X145524285Y-71413333D01*
X145476666Y-71318095D01*
X145476666Y-71222857D01*
X145524285Y-71127619D01*
X145571904Y-71080000D01*
X145667142Y-71032380D01*
X145905238Y-71032380D01*
X146048095Y-71080000D01*
X146381428Y-71032380D02*
X146619523Y-72032380D01*
X146810000Y-71318095D01*
X147000476Y-72032380D01*
X147238571Y-71032380D01*
X148143333Y-72032380D02*
X147571904Y-72032380D01*
X147857619Y-72032380D02*
X147857619Y-71032380D01*
X147762380Y-71175238D01*
X147667142Y-71270476D01*
X147571904Y-71318095D01*
M02*
